<svg width="158" height="148" viewBox="0 0 158 148" fill="none" xmlns="http://www.w3.org/2000/svg">
<g filter="url(#filter0_d)">
<rect x="2" width="150" height="140" rx="70" fill="url(#paint0_linear)"/>
<path d="M47.1412 90.6119L50.3176 87.4354L52.2235 83.6236C52.2235 82.923 52.079 79.9046 52.1486 79.6006C51.7577 78.0785 50.1378 70.9059 50.3176 69.6472L55.4 66.4707L59.2118 67.7413H62.3882L66.2 70.2825L68.1059 72.8236L69.3765 76.0001L73.1882 75.3648L47.1412 90.6119Z" fill="#C2DBEF"/>
<path d="M78.9059 116.659L88.4353 121.741L131 96.9647L124.012 93.1529L117.024 87.4353L113.847 79.8118V66.4706L113.212 60.1176V56.3059L111.941 52.4941L108.765 48.6824L104.953 44.8706L99.8706 42.9647L77.6353 56.3059L75.7294 52.4941V46.7765V37.2471L74.4588 32.1647L71.9176 27.7176L70.0118 25.1765L67.4706 23.2706L65.5647 22L23 46.7765L24.9059 48.6824L28.7176 52.4941L31.8941 58.8471V65.8353V73.4588L32.5294 78.5412L35.0706 83.6235L40.7882 88.7059L46.5059 90.6118L50.3176 87.4353L52.8588 82.3529V72.8235L55.4 69.6471H59.8471L65.5647 72.8235L68.7412 78.5412L70.0118 87.4353V94.4235V100.776L71.9176 109.035L78.9059 116.659Z" fill="white"/>
<path d="M66.8353 26.447L30.6235 47.4117L31.8941 48.6823L67.4706 27.0823L66.8353 26.447Z" fill="black"/>
<path d="M66.8353 26.447L30.6235 47.4117L31.8941 48.6823L67.4706 27.0823L66.8353 26.447Z" fill="black"/>
<path d="M73.1883 54.3999L36.9765 75.3646L38.2471 76.6352L73.8236 55.0352L73.1883 54.3999Z" fill="black"/>
<path d="M71.9176 49.3176L35.7059 70.2823L36.9765 71.5529L72.5529 49.9529L71.9176 49.3176Z" fill="black"/>
<path d="M71.9176 44.2354L35.7059 65.2001L36.9765 66.4706L72.5529 44.8706L71.9176 44.2354Z" fill="black"/>
<path d="M71.9176 40.4236L35.7059 61.3883L36.9765 62.6589L72.5529 41.0589L71.9176 40.4236Z" fill="black"/>
<path d="M111.306 78.5413L75.0941 99.506L76.3647 100.777L111.941 79.1766L111.306 78.5413Z" fill="black"/>
<path d="M110.035 74.7292L73.8235 95.694L75.0941 96.9645L110.671 75.3645L110.035 74.7292Z" fill="black"/>
<path d="M110.035 69.647L73.8235 90.6117L75.0941 91.8823L110.671 70.2823L110.035 69.647Z" fill="black"/>
<path d="M110.035 64.5647L73.8235 85.5294L75.0941 86.8L110.671 65.2L110.035 64.5647Z" fill="black"/>
<path d="M71.9176 35.3411L35.7059 56.3058L36.9765 57.5764L72.5529 35.9764L71.9176 35.3411Z" fill="black"/>
<path d="M69.3765 31.5293L33.1647 52.494L34.4353 53.7646L70.0118 32.1646L69.3765 31.5293Z" fill="black"/>
<path d="M53.4941 70.9177C48.6235 73.6707 38.7553 79.3036 38.2471 79.8118L38.8824 81.0824L52.8588 72.8236L53.4941 70.9177Z" fill="black"/>
<path d="M52.2236 76.6353L40.7883 83.6235L41.4236 84.8941L52.2236 78.5411V76.6353Z" fill="black"/>
<path d="M51.5882 82.3528L44.6 86.7998V88.0704L51.5882 83.6234V82.9881V82.3528Z" fill="black"/>
<path d="M83.9883 58.2117L66.8353 68.3764L68.1059 69.647L84.6236 59.4823L83.9883 58.2117Z" fill="black"/>
<path d="M90.9765 70.9177L73.8235 81.0824L75.0941 82.353L91.6118 72.1883L90.9765 70.9177Z" fill="black"/>
<path d="M89.7059 65.8352L72.553 75.9999L73.8236 77.2705L90.3412 67.1058L89.7059 65.8352Z" fill="black"/>
<path d="M87.1647 62.0234L70.0118 72.1881L71.2824 73.4587L87.8 63.294L87.1647 62.0234Z" fill="black"/>
<path d="M94.153 71.553C94.153 64.2762 87.5883 58.4236 85.2589 56.3059C89.0706 53.7647 101.141 45.9102 101.776 46.1412C105.271 47.4118 110.459 57.5765 111.306 62.0236C106.224 65.8353 94.153 72.8236 94.153 71.553Z" fill="url(#paint1_linear)"/>
<path d="M106 36L104 36.6667H102.667V24L115.333 16L118 14.5V28L112.667 32L107.333 38L106 36Z" fill="white"/>
<path d="M100 35.3333L102 36.6667H102.667V24L118 14.5L116 13L100 22.6667V35.3333Z" fill="#C2DBEF"/>
<path d="M109.091 25.8181L108 26.909L108.545 30.7272L109.636 30.1818L109.091 25.8181Z" fill="#0098FF"/>
<path d="M110.182 25.2727V29.0909L113.455 27.4545V26.3636L113.698 25.2727L114 24.7273V24.1818V23.0909L113.455 22.5455L111.818 23.6364V22H111.273H110.727V24.1818L110.182 25.2727Z" fill="#0098FF"/>
<path d="M83 28L81 28.6667H79.6667V16L92.3334 8L95 6.5V20L89.6667 24L84.3334 30L83 28Z" fill="white"/>
<path d="M77 27.3333L79 28.6667H79.6667V16L95 6.5L93 5L77 14.6667V27.3333Z" fill="#C2DBEF"/>
<path d="M89.6667 18.6666L87 21.9999L85.6667 21.3333L84.3334 20.6666L83.6667 19.9999V18.6666L84.3334 16.6666L85.6667 15.9999L87.6667 16.6666L88.3334 14.6666L89.6667 13.3333L91 13.9999V15.9999L89.6667 18.6666Z" fill="#FF0000"/>
</g>
<defs>
<filter id="filter0_d" x="0" y="0" width="158" height="148" filterUnits="userSpaceOnUse" color-interpolation-filters="sRGB">
<feFlood flood-opacity="0" result="BackgroundImageFix"/>
<feColorMatrix in="SourceAlpha" type="matrix" values="0 0 0 0 0 0 0 0 0 0 0 0 0 0 0 0 0 0 127 0"/>
<feOffset dx="2" dy="4"/>
<feGaussianBlur stdDeviation="2"/>
<feColorMatrix type="matrix" values="0 0 0 0 0 0 0 0 0 0 0 0 0 0 0 0 0 0 0.25 0"/>
<feBlend mode="normal" in2="BackgroundImageFix" result="effect1_dropShadow"/>
<feBlend mode="normal" in="SourceGraphic" in2="effect1_dropShadow" result="shape"/>
</filter>
<linearGradient id="paint0_linear" x1="2" y1="70" x2="152" y2="70" gradientUnits="userSpaceOnUse">
<stop stop-color="#63BBED"/>
<stop offset="0.427083" stop-color="#ACDCFA"/>
<stop offset="0.609375" stop-color="#ACDCFA"/>
<stop offset="1" stop-color="#63BBED"/>
</linearGradient>
<linearGradient id="paint1_linear" x1="85.2589" y1="58.9207" x2="111.306" y2="58.9207" gradientUnits="userSpaceOnUse">
<stop stop-color="#3595ED"/>
<stop offset="0.5" stop-color="#91CCF7"/>
<stop offset="1" stop-color="#88C7F6"/>
</linearGradient>
</defs>
</svg>
