<svg width="150" height="144" viewBox="0 0 150 144" fill="none" xmlns="http://www.w3.org/2000/svg">
<rect width="150" height="143.63" rx="71.815" fill="url(#paint0_linear)"/>
<path d="M45.1412 90.6118L48.3176 87.4353L50.2235 83.6235C50.2235 82.9229 50.079 79.9045 50.1486 79.6005C49.7577 78.0784 48.1378 70.9057 48.3176 69.6471L53.4 66.4706L57.2118 67.7412H60.3882L64.2 70.2824L66.1059 72.8235L67.3765 76L71.1882 75.3647L45.1412 90.6118Z" fill="#C2DBEF"/>
<path d="M76.9059 116.659L86.4353 121.741L129 96.9647L122.012 93.1529L115.024 87.4353L111.847 79.8118V66.4706L111.212 60.1176V56.3059L109.941 52.4941L106.765 48.6824L102.953 44.8706L97.8706 42.9647L75.6353 56.3059L73.7294 52.4941V46.7765V37.2471L72.4588 32.1647L69.9176 27.7176L68.0118 25.1765L65.4706 23.2706L63.5647 22L21 46.7765L22.9059 48.6824L26.7176 52.4941L29.8941 58.8471V65.8353V73.4588L30.5294 78.5412L33.0706 83.6235L38.7882 88.7059L44.5059 90.6118L48.3176 87.4353L50.8588 82.3529V72.8235L53.4 69.6471H57.8471L63.5647 72.8235L66.7412 78.5412L68.0118 87.4353V94.4235V100.776L69.9176 109.035L76.9059 116.659Z" fill="white"/>
<path d="M64.8353 26.4471L28.6235 47.4118L29.8941 48.6824L65.4706 27.0824L64.8353 26.4471Z" fill="black"/>
<path d="M64.8353 26.4471L28.6235 47.4118L29.8941 48.6824L65.4706 27.0824L64.8353 26.4471Z" fill="black"/>
<path d="M71.1882 54.4L34.9765 75.3647L36.2471 76.6353L71.8235 55.0353L71.1882 54.4Z" fill="black"/>
<path d="M69.9177 49.3176L33.7059 70.2823L34.9765 71.5529L70.5529 49.9529L69.9177 49.3176Z" fill="black"/>
<path d="M69.9177 44.2353L33.7059 65.2L34.9765 66.4706L70.5529 44.8706L69.9177 44.2353Z" fill="black"/>
<path d="M69.9177 40.4235L33.7059 61.3882L34.9765 62.6588L70.5529 41.0588L69.9177 40.4235Z" fill="black"/>
<path d="M109.306 78.5412L73.0941 99.5059L74.3647 100.776L109.941 79.1765L109.306 78.5412Z" fill="black"/>
<path d="M108.035 74.7294L71.8235 95.6941L73.0941 96.9647L108.671 75.3647L108.035 74.7294Z" fill="black"/>
<path d="M108.035 69.6471L71.8235 90.6118L73.0941 91.8824L108.671 70.2824L108.035 69.6471Z" fill="black"/>
<path d="M108.035 64.5647L71.8235 85.5294L73.0941 86.8L108.671 65.2L108.035 64.5647Z" fill="black"/>
<path d="M69.9177 35.3412L33.7059 56.3059L34.9765 57.5765L70.5529 35.9765L69.9177 35.3412Z" fill="black"/>
<path d="M67.3765 31.5294L31.1647 52.4941L32.4353 53.7647L68.0118 32.1647L67.3765 31.5294Z" fill="black"/>
<path d="M51.4941 70.9176C46.6235 73.6706 36.7553 79.3035 36.2471 79.8118L36.8824 81.0824L50.8588 72.8235L51.4941 70.9176Z" fill="black"/>
<path d="M50.2235 76.6353L38.7882 83.6235L39.4235 84.8941L50.2235 78.5412V76.6353Z" fill="black"/>
<path d="M49.5882 82.3529L42.6 86.8V88.0706L49.5882 83.6235V82.9882V82.3529Z" fill="black"/>
<path d="M81.9882 58.2118L64.8353 68.3765L66.1059 69.6471L82.6235 59.4824L81.9882 58.2118Z" fill="black"/>
<path d="M88.9765 70.9176L71.8235 81.0824L73.0941 82.3529L89.6118 72.1882L88.9765 70.9176Z" fill="black"/>
<path d="M87.7059 65.8353L70.5529 76L71.8235 77.2706L88.3412 67.1059L87.7059 65.8353Z" fill="black"/>
<path d="M85.1647 62.0235L68.0118 72.1882L69.2824 73.4588L85.8 63.2941L85.1647 62.0235Z" fill="black"/>
<path d="M92.1529 71.5529C92.1529 64.2761 85.5882 58.4235 83.2588 56.3059C87.0706 53.7647 99.1412 45.9102 99.7765 46.1412C103.271 47.4118 108.459 57.5765 109.306 62.0235C104.224 65.8353 92.1529 72.8235 92.1529 71.5529Z" fill="url(#paint1_linear)"/>
<path d="M104 36L102 36.6667H100.667V24L113.333 16L116 14.5V28L110.667 32L105.333 38L104 36Z" fill="white"/>
<path d="M98 35.3333L100 36.6667H100.667V24L116 14.5L114 13L98 22.6667V35.3333Z" fill="#C2DBEF"/>
<path d="M107.091 25.8182L106 26.9091L106.545 30.7273L107.636 30.1818L107.091 25.8182Z" fill="#0098FF"/>
<path d="M108.182 25.2727V29.0909L111.455 27.4545V26.3636L111.698 25.2727L112 24.7273V24.1818V23.0909L111.455 22.5455L109.818 23.6364V22H109.273H108.727V24.1818L108.182 25.2727Z" fill="#0098FF"/>
<path d="M81 28L79 28.6667H77.6667V16L90.3333 8L93 6.5V20L87.6667 24L82.3333 30L81 28Z" fill="white"/>
<path d="M75 27.3333L77 28.6667H77.6667V16L93 6.5L91 5L75 14.6667V27.3333Z" fill="#C2DBEF"/>
<path d="M87.6667 18.6667L85 22L83.6667 21.3333L82.3333 20.6667L81.6667 20V18.6667L82.3333 16.6667L83.6667 16L85.6667 16.6667L86.3333 14.6667L87.6667 13.3333L89 14V16L87.6667 18.6667Z" fill="#FF0000"/>
<defs>
<linearGradient id="paint0_linear" x1="0" y1="71.815" x2="150" y2="71.815" gradientUnits="userSpaceOnUse">
<stop stop-color="#2F92ED"/>
<stop offset="0.5" stop-color="#ACDCFA"/>
<stop offset="1" stop-color="#2F92ED"/>
</linearGradient>
<linearGradient id="paint1_linear" x1="83.2588" y1="58.9207" x2="109.306" y2="58.9207" gradientUnits="userSpaceOnUse">
<stop stop-color="#3595ED"/>
<stop offset="0.5" stop-color="#91CCF7"/>
<stop offset="1" stop-color="#88C7F6"/>
</linearGradient>
</defs>
</svg>
