<svg width="145" height="144" viewBox="0 0 145 144" fill="none" xmlns="http://www.w3.org/2000/svg">
<path d="M26.0225 105.972C25.5314 106.349 26.0225 108.052 27.4799 107.454C28.8551 106.889 27.0048 105.219 26.0225 105.972Z" fill="black"/>
<path d="M31.7004 112.307C31.2093 112.778 31.7416 115.052 33.3886 114.207C34.7638 113.501 32.6827 111.366 31.7004 112.307Z" fill="black"/>
<path d="M39.7195 119.482C39.0864 120.089 40.6047 121.805 42.2518 120.96C43.627 120.253 40.7017 118.541 39.7195 119.482Z" fill="black"/>
<path d="M45.4172 120.749C44.7841 121.804 47.6839 122.89 48.3716 121.171C48.7936 120.115 46.0503 119.693 45.4172 120.749Z" fill="black"/>
<path d="M50.9039 120.115C50.2708 121.171 53.0493 122.024 53.737 120.305C54.159 119.249 51.537 119.06 50.9039 120.115Z" fill="black"/>
<path d="M35.0768 116.106C34.4875 116.577 34.6548 118.427 36.554 118.427C38.6364 118.427 36.2556 115.164 35.0768 116.106Z" fill="black"/>
<path d="M28.9549 108.52C28.4756 108.955 28.9571 110.83 30.3774 110.233C31.7532 109.654 29.9137 107.649 28.9549 108.52Z" fill="black"/>
<path d="M54.5265 140.599V126.46C49.6729 127.938 48.4067 127.516 42.92 127.516C41.1502 127.516 39.5268 127.035 38.1411 126.365C34.9322 124.813 32.4041 121.843 30.7495 118.686C29.6184 116.528 28.4618 114.111 27.515 112.744C25.9956 110.549 23.7868 108.734 22.8724 108.101L20.34 105.78C20.129 105.569 19.7914 104.978 20.129 104.303C20.4667 103.627 22.9427 103.599 24.1385 103.669C26.4598 103.881 32.1998 106.16 36.5891 113.588C40.9785 121.016 50.3763 118.512 54.5265 116.331C55.2018 112.617 57.9029 108.734 59.1691 107.257L47.5626 105.147C42.3572 103.74 31.1024 97.2542 27.726 82.5667C24.3496 67.8792 30.6804 56.8917 34.2678 53.2339C31.3135 43.5266 33.8458 34.4525 35.1119 34.4525C39.5013 32.5954 49.8839 38.462 54.5265 41.6274C67.6946 37.4069 83.7889 39.8688 90.1901 41.6274C100.151 34.7057 107.002 33.9601 109.183 34.4525C113.234 39.686 111.715 49.154 110.449 53.2339C119.734 65.0514 118.679 75.6028 117.202 82.5667C115.727 89.52 114.883 90.5825 109.209 97.7278L109.183 97.7607C104.624 103.501 91.6673 106.483 85.7585 107.257C89.8102 110.802 90.4011 119.567 90.1901 123.506V135.746C90.1901 138.61 89.6836 144.651 94.4106 143.132C111.124 138.911 125.854 123.506 131.129 116.331C137.953 107.679 150.606 79.2243 141.76 50.3861C131.208 15.9887 101.795 6.45214 98.0769 4.59323C96.3887 3.74914 75.11 -3.63684 54.5265 2.27193C33.943 8.18069 28.6489 14.1138 22.8724 19.3651C15.9085 25.696 9.58103 32.8709 3.32563 50.3861C-2.92977 67.9014 1.10978 88.8776 3.57176 96.4043C4.6269 100.554 8.84745 112.02 19.707 123.506C31.9275 136.431 44.9946 141.879 49.2508 143.132C52.5301 144.096 54.1044 142.076 54.5265 140.599Z" fill="black"/>
</svg>
