<svg width="155" height="148" viewBox="0 0 155 148" fill="none" xmlns="http://www.w3.org/2000/svg">
<path d="M0 134.091V9.5C0 4.20391 2.42634 1.59702 4.44444 0.545499C5.4214 0.0364593 6.55364 0 7.65526 0H144.013C147.988 0 151.623 2.24636 153.401 5.80254C154.124 7.24798 154.503 8.84078 154.509 10.4568L154.992 136.853C154.997 138.278 154.81 139.697 154.435 141.071L153.898 143.04C153.636 144.001 153.164 144.893 152.515 145.649C151.236 147.141 149.369 148 147.404 148H9.63645C7.32836 148 5.13551 146.991 3.63343 145.239C3.21273 144.748 2.85381 144.208 2.56472 143.629L1.97176 142.444C0.675074 139.85 0 136.99 0 134.091Z" fill="black"/>
<path d="M18.5 30.5C17.5306 16.9287 30 13.1667 35.5 13C39.5 13 52.3 16.3 51.5 29.5C50.7 42.7 40.5 46.3333 35.5 46.5C29.6666 46.8333 19.5 44.5 18.5 30.5Z" fill="white"/>
<path d="M22.5 128.5V57L24 54.5L27 53H45L46.5 54.5L48 57V129L47.5 131L46.5 133.5H45H25L22.5 132.5V128.5Z" fill="white"/>
<path d="M59 129V57.5C59 56.3 60.6667 54.3333 61.5 53.5H80.5H83.5L85 56V62C85.8333 58 93.5 51.5 112 51.5C131.637 51.5 138.167 72 139 81.5C138.667 95 138.2 123 139 127C139.8 131 137 133.333 135.5 134H133H117.5C114.7 134 112.667 131.333 112 130C111.667 116.833 112 90 112 88.5C112 86.2639 109.5 74.5 99 74C90.6 73.6 85.1467 83 85 88.5C84.6667 101 84.2 126.8 85 130C85.8 133.2 82.3333 134 80.5 134H63.5C61.1 134 59.5 130.667 59 129Z" fill="white"/>
</svg>
