<svg width="158" height="148" viewBox="0 0 158 148" fill="none" xmlns="http://www.w3.org/2000/svg">
<g filter="url(#filter0_d)">
<rect x="2" width="150" height="140" rx="70" fill="url(#paint0_linear)"/>
<path d="M92.5036 33.0257L63.6182 17.9163C63.5926 17.9068 63.567 17.8975 63.5413 17.8884C62.2934 17.4455 60.9623 17.5233 60.4439 17.6201L58.5394 18.8051C59.8091 18.5681 61.3962 19.9902 62.031 20.2864C71.3421 24.7304 90.4721 34.0922 92.5036 35.9883C94.5351 37.8844 95.6779 40.4322 95.9953 41.9135V118.645C95.9953 120.067 95.5721 121.213 95.3604 121.608C97.138 121.608 97.5824 119.633 97.5824 118.645C97.6882 94.8455 98.2172 48.7275 97.8998 41.9135C97.6912 37.4345 94.3024 34.2107 92.5036 33.0257Z" fill="#6A6A6A"/>
<path d="M91.234 34.2107L61.7136 19.1014C57.5871 17.6201 55.9923 20.5827 56 22.3603C56.1058 46.5549 56 97.0181 56 98.4994C56 101.944 57.0866 104.721 60.1265 106.498C68.9086 111.634 87.044 121.786 90.5991 122.497C94.7256 123.322 95.9953 121.904 95.9953 119.238L95.9953 42.8023C95.9953 37.4696 92.6095 35.0995 91.234 34.2107Z" fill="#2B303B"/>
<path d="M57.2697 21.7675C58.0315 19.6344 60.1265 19.6936 61.0788 19.9899C69.6492 24.3351 87.5518 33.4994 90.5991 35.3955C93.6464 37.2916 94.6198 41.1232 94.7256 42.802V119.237C93.9638 122.082 91.4456 121.608 90.2817 121.015C81.9229 116.67 64.6339 107.683 62.3485 106.498C59.0171 104.771 57.2697 101.462 57.2697 98.7954V98.6909V21.7675Z" fill="#333333"/>
<path d="M58.5394 92.5742V26.8042L93.4559 44.8761V110.646L58.5394 92.5742Z" fill="white"/>
<path d="M65.8401 26.5079V22.6565L76.3151 27.9892L86.4726 33.3219V37.1733C86.2187 38.5954 84.6739 38.5558 83.9332 38.3583L68.0621 30.063C65.8401 28.878 65.8401 27.4954 65.8401 26.5079Z" fill="black"/>
<path d="M67.7611 70.5107C67.488 67.7071 69.468 68.0681 70.4921 68.5991L82.7365 75.1229C84.1473 75.9266 84.0167 76.7159 83.7606 77.6717C83.3189 79.3206 82.7818 79.4311 81.4163 78.7939L69.1266 72.4222C68.4439 72.1036 67.7611 71.4664 67.7611 70.5107Z" fill="#96FF69"/>
<path d="M64 76.5805V73.0859L87 84.5681V88.0627L64 76.5805Z" fill="#96FF69"/>
<path d="M64 82.5707V79.0762L87 90.5583V94.0529L64 82.5707Z" fill="#96FF69"/>
<path d="M65.5893 75.0496L65.0856 75.9304M66.9731 76.8707L67.4768 75.9899M69.3643 76.9301L68.8606 77.811M71.2518 77.8704L70.7481 78.7513M73.1393 78.8107L72.6356 79.6916M75.0268 79.751L74.5231 80.6319" stroke="black"/>
<path d="M65.5735 81.073L65.0698 81.9538M66.9573 82.8941L67.461 82.0133M69.3485 82.9536L68.8448 83.8344M71.236 83.8939L70.7323 84.7747M73.1235 84.8342L72.6198 85.715M75.011 85.7744L74.5073 86.6553" stroke="black"/>
<path d="M67 54.0025C67 43.8605 73.1384 44.3115 76.8786 45.3588C80.5831 46.5112 83.0528 49.3925 84.2876 53.4263C84.2876 53.4263 87.9921 67.2564 79.9657 67.2564C70.7045 67.2564 67 58.6126 67 54.0025Z" fill="#00BB29"/>
<path d="M79.9657 63.2226L71.9393 59.1888C69.4697 57.46 71.9393 56.3075 71.9393 56.3075C71.9393 56.3075 73.9974 55.3471 75.0264 55.155C73.7916 53.4263 73.7916 52.2738 73.7916 51.6975C73.7916 50.409 75.0264 49.9688 75.6438 49.9688C76.2612 49.9688 78.1135 50.545 78.7309 51.6975C79.3483 52.85 79.3483 53.4263 79.3483 54.0025C79.3483 54.9245 78.7309 55.9234 78.1134 56.3075L79.3483 58.0363C79.9657 58.8046 81.2006 60.6871 81.2006 62.0701C81.2006 63.4531 80.3773 63.4147 79.9657 63.2226Z" fill="#FEFBF5"/>
<path d="M52.5544 44.9259C50.1283 48.9694 52.4421 54.9223 53.9022 57.3933L46.2944 93.4476C46.247 93.7846 45.8152 95.4694 45.8152 96.4802C45.8152 98.165 46.4892 98.8389 47.837 98.8389C50.1957 99.1759 50.1957 95.8063 50.5326 94.4585L57.9457 58.7411C59.0239 59.2802 61.0906 57.3933 61.9892 56.3824C62.6631 55.3715 63 54.106 63 51.665C63 49.9802 62.3261 46.7174 61.6522 46.7174C60.6413 46.7174 60.5739 50.9911 60.3044 52.3389C60.0348 53.6868 59.2935 53.7991 58.9566 53.6868L55.25 50.6541C54.9131 50.3172 54.5087 50.0476 54.2392 48.9694C53.9696 47.8911 55.25 44.4766 55.9239 42.9041C56.2609 41.8933 54.9805 40.8824 52.5544 44.9259Z" fill="#7C7DE4"/>
<path d="M50.5326 67.1438C49.8587 67.8177 49.0725 67.7054 48.5109 67.4807V68.8286C49.0725 69.0532 50.3979 69.5025 51.2065 69.5025C53.6326 69.5025 52.2174 68.4916 51.2065 68.1546C51.3189 67.593 51.5435 66.4699 50.5326 67.1438Z" fill="#F5CBBF"/>
<path d="M51.2065 45.7064C48.7805 49.7499 51.0942 55.7028 52.5544 58.1738L44.9466 94.2281C44.8992 94.5651 44.4674 96.2499 44.4674 97.2608C44.4674 98.9455 45.1413 99.6194 46.4891 99.6194C48.8478 99.9564 48.8478 96.5868 49.1848 95.239L56.5978 59.5216C57.6761 60.0608 59.7428 58.1738 60.6413 57.1629C61.3152 56.1521 61.6522 54.8866 61.6522 52.4455C61.6522 50.7608 61.3152 47.7281 60.6413 47.7281C59.6304 47.7281 59.2261 51.7716 58.9565 53.1194C58.687 54.4673 57.9457 54.5796 57.6087 54.4673L53.9022 51.4347C53.5652 51.0977 53.1609 50.8281 52.8913 49.7499C52.6218 48.6716 53.9022 45.2571 54.5761 43.6847C54.9131 42.6738 53.6326 41.6629 51.2065 45.7064Z" fill="#CEE0F7"/>
<path d="M46.8261 97.6328C46.4892 97.9698 45.8152 97.6328 45.8152 96.622C45.8153 95.2474 46.3768 95.1618 46.8261 95.2741C47.5 95.6111 47.2455 97.2135 46.8261 97.6328Z" fill="#696BD2"/>
<path d="M33.9375 88.5C33.9375 87.1522 33.6005 85.1305 33.9375 84.1196C34.4345 82.6284 34.134 78.5036 33.6848 76.7065L37.7283 78.7283C37.3913 80.75 36.9091 84.0005 36.3804 84.7935C35.7065 85.8044 35.3696 88.1631 35.3696 88.837C35.3696 89.3761 35.5942 90.1848 35.7065 90.5218C36.3804 91.1957 36.9196 91.0609 36.3804 91.8696C35.8413 92.6783 34.2464 90.6341 33.6848 89.5109L33.9375 88.5Z" fill="#F7C2B2"/>
<path d="M37.0543 95.2393L37.0543 93.5545C36.2456 92.4762 36.942 91.5328 37.3913 91.1958C38.7391 94.4306 40.4239 93.2175 39.75 92.5436C40.4239 93.2175 41.6594 93.5545 42.4456 93.5545C41.9964 94.0038 40.8956 94.9697 40.0869 95.2393C39.2783 95.5088 38.1775 94.2284 37.7283 93.5545V95.2393H37.0543Z" fill="#333333"/>
<path d="M33.3828 93.2176L33.3828 91.5328C32.5741 90.4545 33.2704 89.511 33.7197 89.1741C35.0675 92.4089 35.7065 91.6451 36.0435 90.8589C36.7174 91.1958 37.9879 91.5328 38.7741 91.5328C38.3248 91.982 37.2241 92.948 36.4154 93.2176C35.6067 93.4871 34.506 92.2067 34.0567 91.5328V93.2176H33.3828Z" fill="#333333"/>
<path d="M37.3913 89.8479C37.3913 88.5001 37.0544 86.4783 37.3913 85.4674C37.8884 83.9763 37.5036 80.1885 37.0544 78.3914L41.0978 79.0653C40.7609 81.087 40.2787 85.6853 39.75 86.4783C39.0761 87.4892 39.0761 89.8478 39.0761 90.5218V90.5218C39.0761 91.0609 39.3007 91.8696 39.4131 92.2066L39.4131 92.2066C40.087 92.8805 40.4239 93.2174 39.4131 93.5544C38.491 93.8618 37.9529 92.3189 37.3913 91.1957L37.3913 89.8479Z" fill="#F7C2B2"/>
<path d="M32 74.6848C33.6174 67.4065 37.1667 65.3623 38.7391 65.25C39.0087 69.0239 40.8732 70.192 41.7717 70.3043V79.0652C35.5717 79.3348 32.6739 76.2572 32 74.6848Z" fill="#172134"/>
<path d="M50.8695 70.3044C50.1956 70.9783 49.4094 70.866 48.8478 70.6414V71.9892C49.4094 72.2138 50.7348 72.6631 51.5435 72.6631C53.9695 72.6631 52.5543 71.6522 51.5435 71.3153C51.6558 70.7537 51.8804 69.6305 50.8695 70.3044Z" fill="#EFCCD0"/>
<path d="M40.087 63.5653L38.7391 65.2501C38.7391 68.4848 40.4239 70.3044 41.4348 70.6414L42.7826 69.6305C42.513 70.4392 43.7935 71.0906 44.4674 71.3153L48.8478 71.9892V70.3044L45.8152 69.2935H48.8478V67.2718H46.1522C47.2304 66.4631 47.2754 64.0145 47.163 62.8914C45.2761 63.4305 44.1304 64.9131 42.7826 66.2609C42.1087 66.9348 41.9739 67.2718 41.4348 67.2718C40.3565 67.0022 40.087 64.6885 40.087 63.5653Z" fill="#FFE500"/>
<path d="M51.2065 61.2065C49.05 63.0934 47.837 61.5434 47.5 60.5326L47.837 59.8587L51.8804 57.8369L52.5543 59.5217L51.2065 61.2065Z" fill="#FFC4B2"/>
<path d="M46.1522 56.8261C45.9275 57.3877 45.0739 58.7131 43.4565 59.5218C40.2217 60.3305 39.5253 62.779 39.75 63.9022C40.0195 66.8674 41.3225 67.7211 41.7717 67.6087C44.7369 64.374 46.6014 63.0037 47.163 62.8913L47.8369 59.8587C51.8804 59.8587 51.8804 58.8479 52.2174 58.8479C52.4869 58.8479 52.779 59.9711 52.5543 60.5327C54.9804 59.9935 54.2391 58.5109 53.5652 57.837C53.2956 55.4109 51.6558 54.3551 50.8696 54.1305C48.1739 53.8609 46.6014 55.8153 46.1522 56.8261Z" fill="#733D23"/>
<path d="M95.5691 86.8564C94.0632 85.3349 94.231 84.6176 94.7483 84.0352C97.7401 83.6695 99.0782 85.9084 98.8125 87.0263C98.2952 87.6086 96.7993 87.7915 95.5691 86.8564Z" fill="#E2EAFA"/>
<path d="M110.596 77.7681L110.515 79.4711L111.673 79.4537L112.121 78.6461C112.155 78.4121 112.267 77.8631 112.446 77.5401C112.625 77.2171 112.263 76.1414 112.06 75.644C112.207 73.7198 111.715 73.8473 111.451 74.1516L111.044 76.9606C110.996 76.5275 110.788 75.7632 110.332 76.1705C109.877 76.5777 110.319 77.4053 110.596 77.7681Z" fill="#DAE2EF"/>
<path d="M109.382 76.6439L109.3 78.3468L110.459 78.3294L110.906 77.5219C110.94 77.2878 111.053 76.7389 111.232 76.4159C111.411 76.0928 111.049 75.0172 110.846 74.5197C110.992 72.5955 110.501 72.7231 110.236 73.0274L109.829 75.8363C109.782 75.4033 109.573 74.6389 109.118 75.0462C108.663 75.4534 109.104 76.281 109.382 76.6439Z" fill="#FFC4B2"/>
<path d="M106.621 76.398L104.254 78.9356C103.704 78.4381 102.317 77.9006 101.729 77.7711L103.215 75.8839L102.738 75.7096C100.348 74.2703 97.5354 70.3603 105.405 66.2354C112.385 62.5762 117.298 63.7739 119.079 65.8821C119.97 66.9362 121.5 69.276 118.165 72.3512C114.577 75.6582 109.252 76.3866 106.621 76.398Z" fill="#6F6FDE"/>
<path d="M104.191 79.1638C103.852 77.0964 102.225 76.3828 100.864 76.2907C99.084 78.3948 94.2602 82.7728 93.8272 83.1979C96.8741 82.9496 97.8515 85.0296 97.9713 86.1262C99.9099 84.0803 103.868 79.8235 104.191 79.1638Z" fill="#FFE500"/>
<path d="M94.7278 85.9563C93.222 84.4347 93.3898 83.7174 93.907 83.135C96.8989 82.7694 98.2369 85.0083 97.9713 86.1261C97.454 86.7085 95.958 86.8913 94.7278 85.9563Z" fill="#FEBD59"/>
<path d="M105.731 74.8666L103.364 77.4042C102.814 76.9067 101.428 76.3691 100.84 76.2397L102.326 74.3525L101.848 74.1782C99.4582 72.7389 97.0052 68.0791 104.061 64.5808C111.143 61.0697 116.408 62.2425 118.19 64.3507C119.08 65.4047 120.611 67.7446 117.275 70.8198C113.688 74.1268 108.362 74.8552 105.731 74.8666Z" fill="#DDE5FF"/>
<path d="M108.022 72.3198C111.351 71.6327 116.974 69.5881 116.911 66.4714C116.826 62.291 109.203 63.6223 105.661 65.2524C103.405 66.2902 101.685 67.9403 101.42 69.0582C100.379 73.4392 105.652 72.8091 108.022 72.3198Z" fill="#37467C"/>
<path d="M108.445 72.8748C111.731 72.2034 117.31 70.1835 117.196 67.0694C117.029 62.5616 109.793 64.3675 106.301 65.9806C104.181 66.9601 102.439 68.2141 102.025 69.6497C100.972 73.2949 106.105 73.3529 108.445 72.8748Z" fill="#3796EE"/>
<path d="M108.133 72.8923C111.291 72.1917 116.187 70.8483 117.056 68.2132C118.908 62.595 108.473 66.0918 106.231 67.215C102.916 68.8752 101.992 69.9451 102.13 71.1341C102.342 72.9682 104.484 73.7015 108.133 72.8923Z" fill="#9FD4F8"/>
<path d="M96.3686 83.6275C96.4566 84.5195 97.1891 84.9148 97.8135 85.0935L96.8688 86.0615C96.2444 85.8828 94.8275 85.4031 94.1551 84.9136C92.1379 83.4449 94.5544 83.7876 95.6311 84.1576C95.9313 83.6863 96.0004 82.5316 96.3686 83.6275Z" fill="#FFBEB0"/>
<path d="M102.593 90.8041C107.283 91.5637 111.387 90.9096 112.853 90.4876L111.021 86.6896C108.676 88.2088 104.425 88.3776 102.593 88.2721L97.8297 84.7905L96.364 86.373L102.593 90.8041Z" fill="#00BB29"/>
<path d="M108.904 84.5754C111.35 88.1146 114.635 90.3382 115.971 91.0076L116.884 87.3228C114.013 86.8105 112.222 84.155 111.101 82.8991L110.968 77.5104L108.625 77.6093L108.904 84.5754Z" fill="#00BB29"/>
<path d="M115.052 81.942L115.418 86.373V86.6896C114.832 88.2088 112.975 87.3226 112.12 86.6896V85.4235C110.361 85.1703 110.41 82.786 110.655 81.6255C111.827 82.6383 114.075 82.2585 115.052 81.942Z" fill="#FABCB4"/>
<path d="M119.449 91.4372C119.742 87.6392 116.64 86.2676 115.052 86.0566V86.3731C115.052 87.386 113.097 86.7951 112.12 86.3731C111.51 86.4786 110.361 86.7529 110.655 87.0062C111.021 87.3227 111.754 88.9052 111.387 89.8547C111.094 90.6143 109.555 91.0152 108.822 91.1207L108.456 102.515C116.664 104.54 119.693 102.304 120.182 100.932C119.937 99.5608 119.449 95.7417 119.449 91.4372Z" fill="#00BB29"/>
<path d="M109.922 124.987C112.267 126.506 112.609 124.565 112.487 123.404H112.12L108.09 121.189C105.744 120.429 105.891 121.716 106.257 122.455C106.502 122.666 107.577 123.468 109.922 124.987Z" fill="#0B3366"/>
<path d="M116.862 121.737C119.208 123.256 119.55 121.315 119.427 120.154H119.061L115.03 117.939C112.685 117.179 112.832 118.466 113.198 119.205C113.442 119.416 114.517 120.218 116.862 121.737Z" fill="#254582"/>
<path d="M116.884 82.5751C114.246 87.6391 112.365 84.4741 111.754 82.2586L111.021 81.9421L110.288 81.309L109.922 80.676V80.043C111.021 80.3595 112.12 79.0935 113.22 79.0935C117.03 78.8403 117.25 81.309 116.884 82.5751Z" fill="#733D23"/>
<path d="M119.449 120.239L119.815 101.882C116.591 104.161 111.387 103.464 109.189 102.831V123.088C110.361 124.1 112.12 123.721 112.853 123.404L114.685 105.047C115.052 109.794 115.785 119.353 115.785 119.606C116.957 120.619 118.716 120.45 119.449 120.239Z" fill="#2B303B"/>
</g>
<defs>
<filter id="filter0_d" x="0" y="0" width="158" height="148" filterUnits="userSpaceOnUse" color-interpolation-filters="sRGB">
<feFlood flood-opacity="0" result="BackgroundImageFix"/>
<feColorMatrix in="SourceAlpha" type="matrix" values="0 0 0 0 0 0 0 0 0 0 0 0 0 0 0 0 0 0 127 0"/>
<feOffset dx="2" dy="4"/>
<feGaussianBlur stdDeviation="2"/>
<feColorMatrix type="matrix" values="0 0 0 0 0 0 0 0 0 0 0 0 0 0 0 0 0 0 0.25 0"/>
<feBlend mode="normal" in2="BackgroundImageFix" result="effect1_dropShadow"/>
<feBlend mode="normal" in="SourceGraphic" in2="effect1_dropShadow" result="shape"/>
</filter>
<linearGradient id="paint0_linear" x1="2" y1="70.1803" x2="152" y2="70.1803" gradientUnits="userSpaceOnUse">
<stop stop-color="#97FF73"/>
<stop offset="0.34375" stop-color="#B2FF9A"/>
<stop offset="0.5" stop-color="#BEFFAB"/>
<stop offset="1" stop-color="#8DFF73"/>
</linearGradient>
</defs>
</svg>
