<svg width="308" height="308" viewBox="0 0 308 308" fill="none" xmlns="http://www.w3.org/2000/svg">
<g filter="url(#filter0_d)">
<g clip-path="url(#clip0)">
<rect x="4" width="300" height="300" rx="150" fill="url(#paint0_linear)"/>
<path d="M210.827 67.4499L157.798 37.7301C157.751 37.7113 157.704 37.693 157.657 37.6751C155.366 36.804 152.922 36.957 151.97 37.1474L148.474 39.4783C150.805 39.0121 153.718 41.8093 154.884 42.392C171.978 51.1332 207.098 69.5478 210.827 73.2774C214.557 77.0069 216.655 82.0185 217.237 84.9322V235.862C217.237 238.66 216.46 240.913 216.072 241.69C219.335 241.69 220.151 237.805 220.151 235.862C220.345 189.049 221.317 98.3353 220.734 84.9322C220.351 76.122 214.129 69.7809 210.827 67.4499Z" fill="#6A6A6A"/>
<path d="M208.496 69.7809L154.301 40.0611C146.726 37.1474 143.798 42.9748 143.812 46.4712C144.006 94.0618 143.812 193.322 143.812 196.236C143.812 203.011 145.807 208.474 151.388 211.97C167.51 222.071 200.804 242.039 207.331 243.438C214.906 245.061 217.237 242.273 217.237 237.028L217.237 86.6804C217.237 76.1911 211.021 71.5291 208.496 69.7809Z" fill="#2B303B"/>
<path d="M146.143 45.3057C147.541 41.11 151.388 41.2265 153.136 41.8093C168.87 50.3562 201.736 68.3823 207.331 72.1119C212.925 75.8414 214.712 83.3782 214.906 86.6804V237.028C213.508 242.622 208.885 241.69 206.748 240.524C191.403 231.977 159.662 214.301 155.467 211.97C149.351 208.572 146.143 202.063 146.143 196.819V196.613V45.3057Z" fill="#333333"/>
<path d="M148.474 184.581V55.2124L212.575 90.7596V220.128L148.474 184.581Z" fill="#FACA5C"/>
<path d="M161.877 54.6296V47.054L181.107 57.5433L199.755 68.0327V75.6083C199.289 78.4055 196.453 78.3278 195.093 77.9393L165.956 61.6225C161.877 59.2916 161.877 56.5721 161.877 54.6296Z" fill="black"/>
<path d="M150.222 93.0906V58.1261L210.827 91.9251V126.307L150.222 93.0906Z" fill="#F3705A"/>
<path d="M178.776 86.0977C178.31 80.9696 181.69 81.63 183.438 82.6012L204.34 94.5342C206.748 96.0043 206.525 97.4479 206.088 99.1962C205.334 102.212 204.417 102.414 202.086 101.249L181.107 89.5941C179.942 89.0114 178.776 87.8459 178.776 86.0977Z" fill="white"/>
<path d="M178.776 98.3353V94.2561L203.834 107.659V111.738L178.776 98.3353Z" fill="#FBF7FA"/>
<path d="M178.776 105.328V101.249L203.834 114.652V118.731L178.776 105.328Z" fill="#FBF7FA"/>
<path d="M180.508 96.5489L179.959 97.5771M182.016 98.6747L182.564 97.6465M184.621 98.7441L184.072 99.7723M186.677 99.8417L186.128 100.87M188.734 100.939L188.185 101.967M190.79 102.037L190.241 103.065" stroke="black"/>
<path d="M180.491 103.58L179.942 104.608M181.998 105.706L182.547 104.678M184.603 105.775L184.055 106.803M186.66 106.873L186.111 107.901M188.716 107.97L188.167 108.999M190.773 109.068L190.224 110.096" stroke="black"/>
<path d="M155.467 82.6012C155.467 72.345 161.26 72.8011 164.791 73.8601C168.287 75.0256 170.618 77.9393 171.784 82.0185C171.784 82.0185 175.28 96.0043 167.704 96.0043C158.963 96.0043 155.467 87.2632 155.467 82.6012Z" fill="#3596ED"/>
<path d="M167.704 91.9251L160.129 87.8459C157.798 86.0977 160.129 84.9322 160.129 84.9322C160.129 84.9322 162.071 83.961 163.042 83.7667C161.877 82.0185 161.877 80.853 161.877 80.2703C161.877 78.9672 163.042 78.522 163.625 78.522C164.208 78.522 165.956 79.1048 166.539 80.2703C167.122 81.4357 167.122 82.0185 167.122 82.6012C167.122 83.5336 166.539 84.5437 165.956 84.9322L167.122 86.6804C167.704 87.4574 168.87 89.361 168.87 90.7596C168.87 92.1582 168.093 92.1193 167.704 91.9251Z" fill="#FEFBF5"/>
<path d="M150.222 128.638V95.4216L210.827 128.638V161.854L150.222 128.638Z" fill="#F3705A"/>
<path d="M159.163 124.774L159.163 123.393L165.974 127.022L165.974 127.608L165.974 128.415L159.163 124.774Z" fill="#00D5EB"/>
<path d="M159.163 128.27L159.163 126.89L165.974 130.519L165.974 131.104L165.974 131.911L159.163 128.27Z" fill="#00D5EB"/>
<path d="M168.487 132.932L168.487 131.552L175.298 135.181L175.298 135.766L175.298 136.573L168.487 132.932Z" fill="#00D5EB"/>
<path d="M184.803 137.594L184.803 136.214L191.615 139.843L191.615 140.428L191.615 141.235L184.803 137.594Z" fill="#00D5EB"/>
<path d="M168.471 129.436L168.484 128.055L174.31 130.795L174.304 131.381L174.315 132.188L168.471 129.436Z" fill="#00D5EB"/>
<path d="M194.142 142.256L194.173 140.875L199.964 143.689L199.951 144.274L199.951 145.082L194.142 142.256Z" fill="#00D5EB"/>
<path d="M194.142 145.752L194.173 144.372L199.964 147.185L199.951 147.771L199.951 148.578L194.142 145.752Z" fill="#00D5EB"/>
<path d="M184.837 141.018L184.902 139.639L190.621 142.595L190.594 143.18L190.574 143.987L184.837 141.018Z" fill="#00D5EB"/>
<path d="M153.719 105.911C153.719 102.648 156.049 101.832 157.798 101.832C161.294 102.414 162.46 104.745 163.042 106.494C163.625 108.242 163.858 111.039 162.46 112.904C161.061 114.769 158.38 113.681 157.215 112.904C155.467 111.738 153.719 109.174 153.719 105.911Z" fill="#15C5EA"/>
<path d="M157.215 103.58V101.832C154.301 101.832 153.719 104.745 153.719 105.328L155.467 105.911C155.467 104.979 156.632 103.968 157.215 103.58Z" fill="#4A4D87"/>
<path d="M168.287 114.652C168.287 111.389 170.618 110.573 172.366 110.573C175.863 111.156 177.028 113.487 177.611 115.235C178.194 116.983 178.427 119.78 177.028 121.645C175.63 123.51 172.949 122.422 171.784 121.645C170.035 120.479 168.287 117.915 168.287 114.652Z" fill="#15C5EA"/>
<path d="M171.784 112.321V110.573C168.87 110.573 168.287 113.487 168.287 114.069L170.035 114.652C170.035 113.72 171.201 112.71 171.784 112.321Z" fill="#4A4D87"/>
<path d="M182.273 121.645C182.273 118.382 184.604 117.566 186.352 117.566C189.848 118.149 191.014 120.479 191.597 122.228C192.179 123.976 192.413 126.773 191.014 128.638C189.615 130.503 186.935 129.415 185.769 128.638C184.021 127.472 182.273 124.908 182.273 121.645Z" fill="#15C5EA"/>
<path d="M185.769 119.314V117.566C182.856 117.566 182.273 120.479 182.273 121.062L184.021 121.645C184.021 120.713 185.187 119.702 185.769 119.314Z" fill="#4A4D87"/>
<path d="M197.424 129.803C197.424 126.54 199.755 125.724 201.503 125.724C205 126.307 206.165 128.638 206.748 130.386C207.331 132.134 207.564 134.931 206.165 136.796C204.767 138.661 202.086 137.573 200.921 136.796C199.172 135.631 197.424 133.067 197.424 129.803Z" fill="#15C5EA"/>
<path d="M200.921 127.472V125.724C198.007 125.724 197.424 128.638 197.424 129.221L199.172 129.803C199.172 128.871 200.338 127.861 200.921 127.472Z" fill="#4A4D87"/>
<path d="M154.301 115.818V113.487L160.711 116.983V119.314L154.301 115.818Z" fill="white"/>
<path d="M169.453 124.559V122.228L175.863 125.724V128.055L169.453 124.559Z" fill="white"/>
<path d="M183.438 131.552V129.221L189.849 132.717V135.048L183.438 131.552Z" fill="white"/>
<path d="M198.59 139.71V137.379L205 140.875V143.206L198.59 139.71Z" fill="white"/>
<path d="M150.222 169.43V131.552L210.827 164.768V203.229L150.222 169.43Z" fill="#F3705A"/>
<path d="M167.122 146.703C163.317 145.435 161.1 164.574 160.129 174.674L196.841 195.07C196.259 182.639 194.51 156.959 192.179 156.027C189.849 155.094 189.266 157.581 189.266 158.94C188.295 171.761 185.42 193.788 181.69 179.336C177.961 164.884 174.114 156.415 171.784 152.53C170.735 150.782 168.87 147.286 167.122 146.703Z" fill="#03C4E3"/>
<path d="M171.201 174.092C169.453 170.595 166.539 166.166 164.791 164.768C162.46 162.903 160.711 170.595 160.129 174.674L196.841 195.07C196.841 192.74 196.259 190.409 195.676 184.581C195.309 180.914 192.179 182.25 189.849 183.998C188.295 184.97 185.303 185.863 185.769 181.667C186.236 177.472 184.88 169.43 184.021 165.351C182.794 159.523 179.755 154.026 178.776 161.854C177.844 169.313 175.474 173.897 174.697 175.257C174.114 176.034 172.599 176.889 171.201 174.092Z" fill="#41F2A7"/>
<path d="M175.863 181.085C174.891 180.696 171.784 178.288 167.122 171.761C162.46 165.234 160.517 170.984 160.129 174.675L196.841 195.07C196.841 190.991 196.026 183.765 192.762 187.495C189.499 191.224 188.683 188.272 188.683 186.329L187.518 171.761C186.935 168.459 185.187 163.602 182.856 170.595C180.525 177.588 177.222 180.502 175.863 181.085Z" fill="#F2E472"/>
<path d="M150.222 173.509V171.761L210.827 204.977V206.725L150.222 173.509Z" fill="white"/>
<path d="M179.942 195.653V192.74L181.107 193.322V196.236L183.438 197.401V198.567L181.107 197.401V199.732L179.942 199.15V196.819L177.611 195.653V194.488L179.942 195.653Z" fill="white"/>
<path d="M152.553 183.998V179.336L156.632 181.667V186.329L152.553 183.998Z" fill="white"/>
<path d="M205.957 213.35L205.957 206.725L200.921 209.056L205.957 213.35Z" fill="white"/>
<path d="M94.5472 105.06C90.3515 112.053 94.353 122.348 96.8782 126.622L83.721 188.975C83.6391 189.558 82.8924 192.471 82.8924 194.22C82.8924 197.133 84.0578 198.299 86.3888 198.299C90.468 198.882 90.468 193.054 91.0508 190.723L103.871 128.953C105.736 129.885 109.31 126.622 110.864 124.873C112.029 123.125 112.612 120.937 112.612 116.715C112.612 113.801 111.447 108.158 110.281 108.158C108.533 108.158 108.416 115.549 107.95 117.88C107.484 120.211 106.202 120.406 105.619 120.211L99.2091 114.967C98.6264 114.384 97.9271 113.918 97.4609 112.053C96.9947 110.188 99.2091 104.283 100.375 101.564C100.957 99.8154 98.7429 98.0672 94.5472 105.06Z" fill="#7C7DE4"/>
<path d="M91.0508 143.484C89.8853 144.65 88.5256 144.456 87.5543 144.067V146.398C88.5256 146.787 90.8177 147.563 92.2163 147.563C96.412 147.563 93.9645 145.815 92.2163 145.233C92.4105 144.261 92.799 142.319 91.0508 143.484Z" fill="#F5CBBF"/>
<path d="M92.2162 106.41C88.0205 113.403 92.022 123.698 94.5472 127.972L81.3901 190.325C81.3081 190.908 80.5614 193.821 80.5614 195.57C80.5614 198.483 81.7269 199.649 84.0579 199.649C88.137 200.232 88.137 194.404 88.7198 192.073L101.54 130.303C103.405 131.235 106.979 127.972 108.533 126.223C109.699 124.475 110.281 122.287 110.281 118.065C110.281 115.151 109.699 109.907 108.533 109.907C106.785 109.907 106.086 116.9 105.619 119.23C105.153 121.561 103.871 121.756 103.288 121.561L96.8782 116.317C96.2954 115.734 95.5961 115.268 95.13 113.403C94.6638 111.538 96.8782 105.633 98.0437 102.914C98.6264 101.165 96.412 99.4172 92.2162 106.41Z" fill="#CEE0F7"/>
<path d="M84.6406 196.213C84.0579 196.796 82.8923 196.213 82.8924 194.465C82.8924 192.088 83.8636 191.94 84.6406 192.134C85.8061 192.717 85.3659 195.488 84.6406 196.213Z" fill="#696BD2"/>
<path d="M62.3508 180.418C62.3508 178.087 61.768 174.591 62.3508 172.843C63.2104 170.264 62.6907 163.13 61.9137 160.022L68.9066 163.519C68.3239 167.015 67.4899 172.637 66.5757 174.008C65.4101 175.756 64.8274 179.836 64.8274 181.001C64.8274 181.934 65.2159 183.332 65.4101 183.915C66.5756 185.08 67.508 184.847 66.5757 186.246C65.6433 187.644 62.8849 184.109 61.9137 182.167L62.3508 180.418Z" fill="#F7C2B2"/>
<path d="M67.7411 192.073L67.7411 189.16C66.3425 187.295 67.5469 185.663 68.3238 185.08C70.6548 190.675 73.5686 188.577 72.4031 187.411C73.5686 188.577 75.7053 189.16 77.065 189.16C76.288 189.937 74.3844 191.607 72.9858 192.073C71.5872 192.539 69.6836 190.325 68.9066 189.16V192.073H67.7411Z" fill="#333333"/>
<path d="M61.3914 188.577L61.3914 185.663C59.9928 183.798 61.1972 182.167 61.9741 181.584C64.3051 187.178 65.4102 185.857 65.9929 184.498C67.1584 185.08 69.3556 185.663 70.7153 185.663C69.9383 186.44 68.0347 188.111 66.6361 188.577C65.2375 189.043 63.3339 186.829 62.5569 185.663V188.577H61.3914Z" fill="#333333"/>
<path d="M68.3239 182.749C68.3239 180.418 67.7411 176.922 68.3239 175.174C69.1835 172.595 68.5181 166.044 67.7411 162.936L74.734 164.102C74.1513 167.598 73.3173 175.551 72.4031 176.922C71.2376 178.67 71.2376 182.749 71.2376 183.915V183.915C71.2376 184.847 71.6261 186.246 71.8203 186.829L71.8203 186.829C72.9858 187.994 73.5685 188.577 71.8203 189.16C70.2257 189.691 69.2951 187.023 68.3239 185.08L68.3239 182.749Z" fill="#F7C2B2"/>
<path d="M59 156.526C61.7972 143.939 67.9354 140.403 70.6548 140.209C71.121 146.736 74.3455 148.756 75.8995 148.95V164.102C65.1771 164.568 60.1655 159.245 59 156.526Z" fill="#425D8C"/>
<path d="M91.6335 148.95C90.4681 150.116 89.1083 149.922 88.1371 149.533V151.864C89.1083 152.253 91.4004 153.03 92.799 153.03C96.9948 153.03 94.5472 151.281 92.799 150.699C92.9933 149.727 93.3818 147.785 91.6335 148.95Z" fill="#EFCCD0"/>
<path d="M72.9858 137.295L70.6548 140.209C70.6548 145.804 73.5686 148.95 75.3168 149.533L77.6478 147.785C77.1816 149.183 79.396 150.31 80.5615 150.699L88.1371 151.864V148.95L82.8924 147.202H88.1371V143.706H83.4752C85.3399 142.307 85.4176 138.072 85.2234 136.13C81.96 137.062 79.9787 139.626 77.6478 141.957C76.4823 143.123 76.2492 143.706 75.3168 143.706C73.452 143.239 72.9858 139.238 72.9858 137.295Z" fill="#FFE500"/>
<path d="M92.2163 133.216C88.4868 136.48 86.3889 133.799 85.8062 132.051L86.3889 130.885L93.3818 127.389L94.5473 130.303L92.2163 133.216Z" fill="#FFC4B2"/>
<path d="M83.4752 125.641C83.0867 126.612 81.6104 128.904 78.8133 130.303C73.219 131.701 72.0146 135.936 72.4031 137.878C72.8693 143.006 75.1226 144.483 75.8995 144.288C81.0277 138.694 84.2522 136.324 85.2234 136.13L86.3889 130.885C93.3818 130.885 93.3818 129.137 93.9645 129.137C94.4307 129.137 94.9358 131.08 94.5473 132.051C98.743 131.118 97.461 128.554 96.2955 127.389C95.8293 123.193 92.9933 121.367 91.6336 120.979C86.9716 120.513 84.2522 123.892 83.4752 125.641Z" fill="#733D23"/>
<path d="M160.805 220.448C163.2 217.646 162.933 216.326 162.111 215.253C157.352 214.58 155.225 218.702 155.647 220.76C156.47 221.833 158.849 222.169 160.805 220.448Z" fill="#E2EAFA"/>
<path d="M136.907 203.714L137.037 206.85L135.194 206.818L134.483 205.331C134.429 204.9 134.25 203.889 133.965 203.294C133.681 202.7 134.256 200.719 134.579 199.803C134.346 196.261 135.128 196.495 135.548 197.056L136.195 202.227C136.271 201.43 136.602 200.023 137.327 200.773C138.051 201.522 137.348 203.046 136.907 203.714Z" fill="#DAE2EF"/>
<path d="M138.838 201.644L138.968 204.78L137.125 204.748L136.414 203.261C136.36 202.83 136.181 201.819 135.896 201.225C135.612 200.63 136.187 198.649 136.51 197.733C136.277 194.191 137.059 194.425 137.479 194.986L138.127 200.158C138.202 199.36 138.534 197.953 139.258 198.703C139.982 199.453 139.28 200.976 138.838 201.644Z" fill="#FFC4B2"/>
<path d="M143.23 201.192L146.994 205.864C147.868 204.948 150.073 203.958 151.008 203.72L148.645 200.245L149.404 199.925C153.205 197.274 157.678 190.075 145.163 182.481C134.062 175.744 126.249 177.949 123.416 181.83C121.999 183.771 119.566 188.079 124.871 193.741C130.575 199.83 139.045 201.171 143.23 201.192Z" fill="#6F6FDE"/>
<path d="M147.094 206.284C147.632 202.478 150.22 201.164 152.385 200.994C155.215 204.868 162.887 212.929 163.575 213.711C158.73 213.254 157.175 217.084 156.985 219.103C153.902 215.336 147.607 207.499 147.094 206.284Z" fill="#FFDA5B"/>
<path d="M162.143 218.79C164.538 215.989 164.271 214.668 163.448 213.596C158.69 212.923 156.562 217.045 156.985 219.103C157.808 220.175 160.187 220.512 162.143 218.79Z" fill="#FEBD59"/>
<path d="M144.645 198.372L148.409 203.044C149.284 202.128 151.488 201.139 152.423 200.9L150.06 197.425L150.819 197.105C154.62 194.454 158.521 185.875 147.299 179.434C136.037 172.969 127.664 175.129 124.831 179.01C123.414 180.951 120.981 185.259 126.286 190.921C131.991 197.01 140.461 198.351 144.645 198.372Z" fill="#DDE5FF"/>
<path d="M141 193.683C135.707 192.418 126.765 188.653 126.865 182.915C126.999 175.218 139.123 177.669 144.756 180.671C148.343 182.581 151.078 185.62 151.501 187.678C153.156 195.744 144.77 194.584 141 193.683Z" fill="#37467C"/>
<path d="M140.328 194.705C135.102 193.469 126.229 189.75 126.412 184.016C126.676 175.717 138.185 179.042 143.738 182.012C147.11 183.815 149.879 186.124 150.539 188.767C152.213 195.479 144.049 195.585 140.328 194.705Z" fill="#3796EE"/>
<path d="M140.825 194.737C135.802 193.447 128.015 190.974 126.634 186.122C123.689 175.778 140.283 182.216 143.85 184.284C149.122 187.341 150.59 189.311 150.372 191.5C150.035 194.877 146.627 196.227 140.825 194.737Z" fill="#9FD4F8"/>
<path d="M159.534 214.503C159.394 216.145 158.229 216.873 157.236 217.202L158.738 218.984C159.731 218.655 161.984 217.772 163.054 216.871C166.262 214.167 162.419 214.798 160.707 215.479C160.229 214.611 160.119 212.485 159.534 214.503Z" fill="#FFBEB0"/>
<path d="M149.634 227.716C142.175 229.115 135.649 227.911 133.318 227.134L136.231 220.141C139.961 222.938 146.721 223.249 149.634 223.054L157.21 216.644L159.541 219.558L149.634 227.716Z" fill="#FFE500"/>
<path d="M139.598 216.248C135.708 222.764 130.484 226.858 128.359 228.091L126.907 221.306C131.473 220.363 134.321 215.474 136.104 213.161L136.315 203.24L140.042 203.422L139.598 216.248Z" fill="#FFE500"/>
<path d="M129.821 211.4L129.238 219.558V220.141C130.171 222.938 133.123 221.306 134.483 220.141V217.81C137.28 217.344 137.203 212.954 136.814 210.817C134.949 212.682 131.375 211.982 129.821 211.4Z" fill="#FABCB4"/>
<path d="M122.828 228.882C122.362 221.889 127.296 219.364 129.821 218.975V219.558C129.821 221.423 132.929 220.335 134.483 219.558C135.454 219.752 137.28 220.257 136.814 220.723C136.231 221.306 135.066 224.22 135.649 225.968C136.115 227.367 138.562 228.105 139.728 228.299L140.311 249.278C127.257 253.007 122.44 248.889 121.663 246.364C122.051 243.839 122.828 236.807 122.828 228.882Z" fill="#FFE500"/>
<path d="M137.98 290.653C134.25 293.45 133.706 289.876 133.9 287.739H134.483L140.893 283.66C144.623 282.261 144.39 284.631 143.807 285.991C143.419 286.379 141.709 287.855 137.98 290.653Z" fill="#0B3366"/>
<path d="M126.942 284.669C123.212 287.466 122.668 283.892 122.862 281.756H123.445L129.855 277.676C133.585 276.278 133.352 278.648 132.769 280.007C132.38 280.396 130.671 281.872 126.942 284.669Z" fill="#254582"/>
<path d="M126.907 212.565C131.103 221.889 134.095 216.062 135.066 211.982L136.231 211.4L137.397 210.234L137.98 209.069V207.903C136.231 208.486 134.483 206.155 132.735 206.155C126.674 205.689 126.325 210.234 126.907 212.565Z" fill="#733D23"/>
<path d="M122.828 281.911L122.246 248.112C127.374 252.308 135.649 251.026 139.145 249.861V287.156C137.28 289.021 134.483 288.322 133.318 287.739L130.404 253.94C129.821 262.681 128.656 280.28 128.656 280.746C126.791 282.611 123.994 282.3 122.828 281.911Z" fill="#2B303B"/>
</g>
</g>
<defs>
<filter id="filter0_d" x="0" y="0" width="308" height="308" filterUnits="userSpaceOnUse" color-interpolation-filters="sRGB">
<feFlood flood-opacity="0" result="BackgroundImageFix"/>
<feColorMatrix in="SourceAlpha" type="matrix" values="0 0 0 0 0 0 0 0 0 0 0 0 0 0 0 0 0 0 127 0"/>
<feOffset dy="4"/>
<feGaussianBlur stdDeviation="2"/>
<feColorMatrix type="matrix" values="0 0 0 0 0 0 0 0 0 0 0 0 0 0 0 0 0 0 0.25 0"/>
<feBlend mode="normal" in2="BackgroundImageFix" result="effect1_dropShadow"/>
<feBlend mode="normal" in="SourceGraphic" in2="effect1_dropShadow" result="shape"/>
</filter>
<linearGradient id="paint0_linear" x1="4" y1="150" x2="304" y2="150" gradientUnits="userSpaceOnUse">
<stop offset="0.104167" stop-color="#2EFFD4"/>
<stop offset="0.484375" stop-color="#CAFFF4"/>
<stop offset="0.802083" stop-color="#35FFD6"/>
</linearGradient>
<clipPath id="clip0">
<rect x="4" width="300" height="300" rx="150" fill="white"/>
</clipPath>
</defs>
</svg>
