<svg width="150" height="144" viewBox="0 0 150 144" fill="none" xmlns="http://www.w3.org/2000/svg">
<rect width="150" height="143.63" rx="71.815" fill="url(#paint0_linear)"/>
<path d="M90.5036 33.8819L61.6182 18.3808C61.5926 18.371 61.567 18.3614 61.5413 18.3521C60.2934 17.8978 58.9623 17.9776 58.4439 18.0769L56.5394 19.2926C57.8091 19.0495 59.3962 20.5084 60.031 20.8123C69.3421 25.3715 88.4721 34.9761 90.5036 36.9213C92.5351 38.8666 93.6779 41.4805 93.9953 43.0002V121.721C93.9953 123.18 93.5721 124.356 93.3604 124.761C95.138 124.761 95.5824 122.735 95.5824 121.721C95.6882 97.3047 96.2172 49.9909 95.8998 43.0002C95.6912 38.405 92.3024 35.0977 90.5036 33.8819Z" fill="#6A6A6A"/>
<path d="M89.234 35.0975L59.7136 19.5964C55.5871 18.0767 53.9923 21.1161 54 22.9398C54.1058 47.7618 54 99.5334 54 101.053C54 104.587 55.0866 107.436 58.1265 109.26C66.9086 114.528 85.044 124.943 88.5991 125.672C92.7256 126.519 93.9953 125.065 93.9953 122.329L93.9953 43.9119C93.9953 38.4409 90.6095 36.0093 89.234 35.0975Z" fill="#2B303B"/>
<path d="M55.2697 22.3318C56.0315 20.1435 58.1265 20.2042 59.0788 20.5082C67.6492 24.966 85.5518 34.368 88.5991 36.3132C91.6464 38.2585 92.6198 42.1895 92.7256 43.9118V122.329C91.9638 125.247 89.4456 124.761 88.2817 124.153C79.9229 119.695 62.6339 110.475 60.3485 109.26C57.0171 107.487 55.2697 104.093 55.2697 101.357V101.25V22.3318Z" fill="#333333"/>
<path d="M56.5394 94.9746V27.4993L91.4559 46.0398V113.515L56.5394 94.9746Z" fill="white"/>
<path d="M63.8401 27.1952V23.2439L74.3151 28.7149L84.4726 34.1858V38.1371C84.2187 39.596 82.6739 39.5555 81.9332 39.3529L66.0621 30.8425C63.8401 29.6267 63.8401 28.2083 63.8401 27.1952Z" fill="black"/>
<path d="M65.7611 72.3386C65.488 69.4623 67.468 69.8327 68.4921 70.3775L80.7365 77.0704C82.1473 77.895 82.0167 78.7047 81.7606 79.6852C81.3189 81.377 80.7818 81.4903 79.4163 80.8366L67.1266 74.2996C66.4439 73.9728 65.7611 73.3191 65.7611 72.3386Z" fill="#96FF69"/>
<path d="M62 78.5659V74.9807L85 86.7606V90.3458L62 78.5659Z" fill="#96FF69"/>
<path d="M62 84.7114V81.1262L85 92.9061V96.4913L62 84.7114Z" fill="#96FF69"/>
<path d="M63.5893 76.9954L63.0856 77.899M64.9731 78.8637L65.4768 77.96M67.3643 78.9247L66.8606 79.8284M69.2518 79.8894L68.7481 80.7931M71.1393 80.8541L70.6356 81.7577M73.0268 81.8187L72.5231 82.7224" stroke="black"/>
<path d="M63.5735 83.1748L63.0698 84.0785M64.9573 85.0431L65.461 84.1395M67.3485 85.1041L66.8448 86.0078M69.236 86.0688L68.7323 86.9725M71.1235 87.0335L70.6198 87.9372M73.011 87.9982L72.5073 88.9018" stroke="black"/>
<path d="M65 55.4025C65 44.9975 71.1384 45.4602 74.8786 46.5346C78.5831 47.717 81.0528 50.6729 82.2876 54.8113C82.2876 54.8113 85.9921 69 77.9657 69C68.7045 69 65 60.1321 65 55.4025Z" fill="#00BB29"/>
<path d="M77.9657 64.8616L69.9393 60.7233C67.4697 58.9497 69.9393 57.7673 69.9393 57.7673C69.9393 57.7673 71.9974 56.782 73.0264 56.5849C71.7916 54.8113 71.7916 53.6289 71.7916 53.0377C71.7916 51.7158 73.0264 51.2642 73.6438 51.2642C74.2612 51.2642 76.1135 51.8554 76.7309 53.0377C77.3483 54.2201 77.3483 54.8113 77.3483 55.4025C77.3483 56.3484 76.7309 57.3732 76.1135 57.7673L77.3483 59.5409C77.9657 60.3292 79.2006 62.2604 79.2006 63.6793C79.2006 65.0981 78.3774 65.0587 77.9657 64.8616Z" fill="#FEFBF5"/>
<path d="M50.5544 44.9259C48.1283 48.9694 50.4421 54.9223 51.9022 57.3933L44.2944 93.4476C44.247 93.7846 43.8152 95.4694 43.8152 96.4802C43.8152 98.165 44.4892 98.8389 45.837 98.8389C48.1957 99.1759 48.1957 95.8063 48.5326 94.4585L55.9457 58.7411C57.0239 59.2802 59.0906 57.3933 59.9892 56.3824C60.6631 55.3715 61 54.106 61 51.665C61 49.9802 60.3261 46.7174 59.6522 46.7174C58.6413 46.7174 58.5739 50.9911 58.3044 52.3389C58.0348 53.6868 57.2935 53.7991 56.9566 53.6868L53.25 50.6541C52.9131 50.3172 52.5087 50.0476 52.2392 48.9694C51.9696 47.8911 53.25 44.4766 53.9239 42.9041C54.2609 41.8933 52.9805 40.8824 50.5544 44.9259Z" fill="#7C7DE4"/>
<path d="M48.5326 67.1438C47.8587 67.8177 47.0725 67.7054 46.5109 67.4807V68.8286C47.0725 69.0532 48.3979 69.5025 49.2065 69.5025C51.6326 69.5025 50.2174 68.4916 49.2065 68.1546C49.3189 67.593 49.5435 66.4699 48.5326 67.1438Z" fill="#F5CBBF"/>
<path d="M49.2065 45.7064C46.7805 49.7499 49.0942 55.7028 50.5544 58.1738L42.9466 94.2281C42.8992 94.5651 42.4674 96.2499 42.4674 97.2608C42.4674 98.9455 43.1413 99.6194 44.4891 99.6194C46.8478 99.9564 46.8478 96.5868 47.1848 95.239L54.5978 59.5216C55.6761 60.0608 57.7428 58.1738 58.6413 57.1629C59.3152 56.1521 59.6522 54.8866 59.6522 52.4455C59.6522 50.7608 59.3152 47.7281 58.6413 47.7281C57.6304 47.7281 57.2261 51.7716 56.9565 53.1194C56.687 54.4673 55.9457 54.5796 55.6087 54.4673L51.9022 51.4347C51.5652 51.0977 51.1609 50.8281 50.8913 49.7499C50.6218 48.6716 51.9022 45.2571 52.5761 43.6847C52.9131 42.6738 51.6326 41.6629 49.2065 45.7064Z" fill="#CEE0F7"/>
<path d="M44.8261 97.6328C44.4892 97.9698 43.8152 97.6328 43.8152 96.622C43.8153 95.2474 44.3768 95.1618 44.8261 95.2741C45.5 95.6111 45.2455 97.2135 44.8261 97.6328Z" fill="#696BD2"/>
<path d="M31.9375 88.5C31.9375 87.1522 31.6005 85.1305 31.9375 84.1196C32.4345 82.6284 32.134 78.5036 31.6848 76.7065L35.7283 78.7283C35.3913 80.75 34.9091 84.0005 34.3804 84.7935C33.7065 85.8044 33.3696 88.1631 33.3696 88.837C33.3696 89.3761 33.5942 90.1848 33.7065 90.5218C34.3804 91.1957 34.9196 91.0609 34.3804 91.8696C33.8413 92.6783 32.2464 90.6341 31.6848 89.5109L31.9375 88.5Z" fill="#F7C2B2"/>
<path d="M35.0543 95.2393L35.0543 93.5545C34.2456 92.4762 34.942 91.5328 35.3913 91.1958C36.7391 94.4306 38.4239 93.2175 37.75 92.5436C38.4239 93.2175 39.6594 93.5545 40.4456 93.5545C39.9964 94.0038 38.8956 94.9697 38.0869 95.2393C37.2783 95.5088 36.1775 94.2284 35.7283 93.5545V95.2393H35.0543Z" fill="#333333"/>
<path d="M31.3828 93.2176L31.3828 91.5328C30.5741 90.4545 31.2704 89.511 31.7197 89.1741C33.0675 92.4089 33.7065 91.6451 34.0435 90.8589C34.7174 91.1958 35.9879 91.5328 36.7741 91.5328C36.3248 91.982 35.2241 92.948 34.4154 93.2176C33.6067 93.4871 32.506 92.2067 32.0567 91.5328V93.2176H31.3828Z" fill="#333333"/>
<path d="M35.3913 89.8479C35.3913 88.5001 35.0544 86.4783 35.3913 85.4674C35.8884 83.9763 35.5036 80.1885 35.0544 78.3914L39.0978 79.0653C38.7609 81.087 38.2787 85.6853 37.75 86.4783C37.0761 87.4892 37.0761 89.8478 37.0761 90.5218V90.5218C37.0761 91.0609 37.3007 91.8696 37.4131 92.2066L37.4131 92.2066C38.087 92.8805 38.4239 93.2174 37.4131 93.5544C36.491 93.8618 35.9529 92.3189 35.3913 91.1957L35.3913 89.8479Z" fill="#F7C2B2"/>
<path d="M30 74.6848C31.6174 67.4065 35.1667 65.3623 36.7391 65.25C37.0087 69.0239 38.8732 70.192 39.7717 70.3043V79.0652C33.5717 79.3348 30.6739 76.2572 30 74.6848Z" fill="#172134"/>
<path d="M48.8695 70.3044C48.1956 70.9783 47.4094 70.866 46.8478 70.6414V71.9892C47.4094 72.2138 48.7348 72.6631 49.5435 72.6631C51.9695 72.6631 50.5543 71.6522 49.5435 71.3153C49.6558 70.7537 49.8804 69.6305 48.8695 70.3044Z" fill="#EFCCD0"/>
<path d="M38.087 63.5653L36.7391 65.2501C36.7391 68.4848 38.4239 70.3044 39.4348 70.6414L40.7826 69.6305C40.513 70.4392 41.7935 71.0906 42.4674 71.3153L46.8478 71.9892V70.3044L43.8152 69.2935H46.8478V67.2718H44.1522C45.2304 66.4631 45.2754 64.0145 45.163 62.8914C43.2761 63.4305 42.1304 64.9131 40.7826 66.2609C40.1087 66.9348 39.9739 67.2718 39.4348 67.2718C38.3565 67.0022 38.087 64.6885 38.087 63.5653Z" fill="#FFE500"/>
<path d="M49.2065 61.2065C47.05 63.0934 45.837 61.5434 45.5 60.5326L45.837 59.8587L49.8804 57.8369L50.5543 59.5217L49.2065 61.2065Z" fill="#FFC4B2"/>
<path d="M44.1522 56.8261C43.9275 57.3877 43.0739 58.7131 41.4565 59.5218C38.2217 60.3305 37.5253 62.779 37.75 63.9022C38.0195 66.8674 39.3225 67.7211 39.7717 67.6087C42.7369 64.374 44.6014 63.0037 45.163 62.8913L45.8369 59.8587C49.8804 59.8587 49.8804 58.8479 50.2174 58.8479C50.4869 58.8479 50.779 59.9711 50.5543 60.5327C52.9804 59.9935 52.2391 58.5109 51.5652 57.837C51.2956 55.4109 49.6558 54.3551 48.8696 54.1305C46.1739 53.8609 44.6014 55.8153 44.1522 56.8261Z" fill="#733D23"/>
<path d="M93.5691 86.8564C92.0632 85.3349 92.231 84.6176 92.7483 84.0352C95.7401 83.6695 97.0782 85.9084 96.8125 87.0263C96.2952 87.6086 94.7993 87.7915 93.5691 86.8564Z" fill="#E2EAFA"/>
<path d="M108.596 77.7681L108.515 79.4711L109.673 79.4537L110.121 78.6461C110.155 78.4121 110.267 77.8631 110.446 77.5401C110.625 77.2171 110.263 76.1414 110.06 75.644C110.207 73.7198 109.715 73.8473 109.451 74.1516L109.044 76.9606C108.996 76.5275 108.788 75.7632 108.332 76.1705C107.877 76.5777 108.319 77.4053 108.596 77.7681Z" fill="#DAE2EF"/>
<path d="M107.382 76.6439L107.3 78.3468L108.459 78.3294L108.906 77.5219C108.94 77.2878 109.053 76.7389 109.232 76.4159C109.411 76.0928 109.049 75.0172 108.846 74.5197C108.992 72.5955 108.501 72.7231 108.236 73.0274L107.829 75.8363C107.782 75.4033 107.573 74.6389 107.118 75.0462C106.663 75.4534 107.104 76.281 107.382 76.6439Z" fill="#FFC4B2"/>
<path d="M104.621 76.398L102.254 78.9356C101.704 78.4381 100.317 77.9006 99.7293 77.7711L101.215 75.8839L100.738 75.7096C98.348 74.2703 95.5354 70.3603 103.405 66.2354C110.385 62.5762 115.298 63.7739 117.079 65.8821C117.97 66.9362 119.5 69.276 116.165 72.3512C112.577 75.6582 107.252 76.3866 104.621 76.398Z" fill="#6F6FDE"/>
<path d="M102.191 79.1638C101.852 77.0964 100.225 76.3828 98.8636 76.2907C97.084 78.3948 92.2602 82.7728 91.8272 83.1979C94.8741 82.9496 95.8515 85.0296 95.9713 86.1262C97.9099 84.0803 101.868 79.8235 102.191 79.1638Z" fill="#FFE500"/>
<path d="M92.7278 85.9563C91.222 84.4347 91.3898 83.7174 91.907 83.135C94.8989 82.7694 96.2369 85.0083 95.9713 86.1261C95.454 86.7085 93.958 86.8913 92.7278 85.9563Z" fill="#FEBD59"/>
<path d="M103.731 74.8666L101.364 77.4042C100.814 76.9067 99.4276 76.3691 98.8395 76.2397L100.326 74.3525L99.8482 74.1782C97.4582 72.7389 95.0052 68.0791 102.061 64.5808C109.143 61.0697 114.408 62.2425 116.19 64.3507C117.08 65.4047 118.611 67.7446 115.275 70.8198C111.688 74.1268 106.362 74.8552 103.731 74.8666Z" fill="#DDE5FF"/>
<path d="M106.022 72.3198C109.351 71.6327 114.974 69.5881 114.911 66.4714C114.826 62.291 107.203 63.6223 103.661 65.2524C101.405 66.2902 99.6854 67.9403 99.4197 69.0582C98.3786 73.4392 103.652 72.8091 106.022 72.3198Z" fill="#37467C"/>
<path d="M106.445 72.8748C109.731 72.2034 115.31 70.1835 115.196 67.0694C115.029 62.5616 107.793 64.3675 104.301 65.9806C102.181 66.9601 100.439 68.2141 100.025 69.6497C98.972 73.2949 104.105 73.3529 106.445 72.8748Z" fill="#3796EE"/>
<path d="M106.133 72.8923C109.291 72.1917 114.187 70.8483 115.056 68.2132C116.908 62.595 106.473 66.0918 104.231 67.215C100.916 68.8752 99.9922 69.9451 100.13 71.1341C100.342 72.9682 102.484 73.7015 106.133 72.8923Z" fill="#9FD4F8"/>
<path d="M94.3686 83.6275C94.4566 84.5195 95.1891 84.9148 95.8135 85.0935L94.8688 86.0615C94.2444 85.8828 92.8275 85.4031 92.1551 84.9136C90.1379 83.4449 92.5544 83.7876 93.6311 84.1576C93.9313 83.6863 94.0004 82.5316 94.3686 83.6275Z" fill="#FFBEB0"/>
<path d="M100.593 90.8041C105.283 91.5637 109.387 90.9096 110.853 90.4876L109.021 86.6896C106.676 88.2088 102.425 88.3776 100.593 88.2721L95.8297 84.7905L94.364 86.373L100.593 90.8041Z" fill="#00BB29"/>
<path d="M106.904 84.5754C109.35 88.1146 112.635 90.3382 113.971 91.0076L114.884 87.3228C112.013 86.8105 110.222 84.155 109.101 82.8991L108.968 77.5104L106.625 77.6093L106.904 84.5754Z" fill="#00BB29"/>
<path d="M113.052 81.942L113.418 86.373V86.6896C112.832 88.2088 110.975 87.3226 110.12 86.6896V85.4235C108.361 85.1703 108.41 82.786 108.655 81.6255C109.827 82.6383 112.075 82.2585 113.052 81.942Z" fill="#FABCB4"/>
<path d="M117.449 91.4372C117.742 87.6392 114.64 86.2676 113.052 86.0566V86.3731C113.052 87.386 111.097 86.7951 110.12 86.3731C109.51 86.4786 108.361 86.7529 108.655 87.0062C109.021 87.3227 109.754 88.9052 109.387 89.8547C109.094 90.6143 107.555 91.0152 106.822 91.1207L106.456 102.515C114.664 104.54 117.693 102.304 118.182 100.932C117.937 99.5608 117.449 95.7417 117.449 91.4372Z" fill="#00BB29"/>
<path d="M107.922 124.987C110.267 126.506 110.609 124.565 110.487 123.404H110.12L106.09 121.189C103.744 120.429 103.891 121.716 104.257 122.455C104.502 122.666 105.577 123.468 107.922 124.987Z" fill="#0B3366"/>
<path d="M114.862 121.737C117.208 123.256 117.55 121.315 117.427 120.154H117.061L113.03 117.939C110.685 117.179 110.832 118.466 111.198 119.205C111.442 119.416 112.517 120.218 114.862 121.737Z" fill="#254582"/>
<path d="M114.884 82.5751C112.246 87.6391 110.365 84.4741 109.754 82.2586L109.021 81.9421L108.288 81.309L107.922 80.676V80.043C109.021 80.3595 110.12 79.0935 111.22 79.0935C115.03 78.8403 115.25 81.309 114.884 82.5751Z" fill="#733D23"/>
<path d="M117.449 120.239L117.815 101.882C114.591 104.161 109.387 103.464 107.189 102.831V123.088C108.361 124.1 110.12 123.721 110.853 123.404L112.685 105.047C113.052 109.794 113.785 119.353 113.785 119.606C114.957 120.619 116.716 120.45 117.449 120.239Z" fill="#2B303B"/>
<defs>
<linearGradient id="paint0_linear" x1="-1.36067e-06" y1="72" x2="150" y2="72" gradientUnits="userSpaceOnUse">
<stop stop-color="#97FF73"/>
<stop offset="0.34375" stop-color="#B2FF9A"/>
<stop offset="0.5" stop-color="#BEFFAB"/>
<stop offset="1" stop-color="#8DFF73"/>
</linearGradient>
</defs>
</svg>
