<svg width="158" height="152" viewBox="0 0 158 152" fill="none" xmlns="http://www.w3.org/2000/svg">
<g filter="url(#filter0_d)">
<rect x="2" width="150" height="144" rx="72" fill="url(#paint0_linear)"/>
<path d="M18 90.7593L78.892 125.411H84.9475L124.981 102.198L127 98.8334L124.981 97.1513L118.253 93.7871L115.225 91.7685L116.571 90.7593L75.8642 66.8735L72.8364 68.2192L68.463 64.5185L69.8086 63.8457L67.7901 62.5L63.7531 61.4908L60.3889 62.5L18 86.0494V90.7593Z" fill="white"/>
<path d="M84.2747 123.056L125.654 97.8241L126.664 99.1698L125.654 101.861L84.9475 125.41H79.5648L18.3364 90.0864V86.0494H19.3457C19.3457 86.0494 19.3457 88.0679 21.0278 89.4136C22.7099 90.7593 80.9105 123.056 80.9105 123.056H84.2747Z" fill="#1C2B8A"/>
<path d="M118.926 94.1235H115.898H114.889L112.534 92.4414L113.543 91.4321L72.5 67.5463L70.145 68.892L65.4351 65.5278L67.1172 64.1821L62.4074 61.8272L60.7253 60.1451L59.3796 58.463V9.00926L62.0709 8L65.4351 10.0185L123.972 44.3333L125.318 46.0154V49.0432V95.1327L123.299 96.4784L118.926 94.1235Z" fill="#1C2B8A"/>
<path d="M123.192 93.6479V47.222L62.6368 11.8979V58.3238L123.192 93.6479Z" fill="#5D5BA6"/>
<path d="M112.197 55.1719V53.4605L72.8364 31.213V32.9243L112.197 55.1719Z" fill="#203481"/>
<path d="M112.197 80.8421V55.1718L72.8364 32.9243V59.0224L112.197 80.8421Z" fill="white"/>
<path d="M102.105 61.8271L98.0679 57.1172L99.0772 55.7716L104.796 61.8271V63.8456H95.713L96.7222 61.8271H102.105Z" fill="#1C2B8A"/>
<path d="M93.358 63.1729V51.0617L91.3395 49.7161V62.1636L93.358 63.1729Z" fill="#1C2B8A"/>
<path d="M82.929 52.4074H88.6481L89.321 50.3889L80.574 51.0617V52.4074L86.6296 58.7994V56.4444L82.929 52.4074Z" fill="#1C2B8A"/>
<path d="M121.281 102.87L120.608 101.861L117.917 103.543L118.589 104.552L121.281 102.87Z" fill="#171717"/>
<path d="M117.917 104.889L117.244 103.88L114.552 105.562L115.225 106.571L117.917 104.889Z" fill="#171717"/>
<path d="M55.3426 87.3951C56.1708 87.503 80.2376 101.188 80.2376 101.861C80.2376 102.534 65.0987 112.29 64.4259 112.29C63.7531 112.29 37.8487 97.1513 37.8487 97.1513C37.853 96.5869 54.5143 87.2873 55.3426 87.3951Z" fill="#C4C4C4"/>
<path d="M92.0124 107.244L94.3673 108.926L96.7222 107.244L94.3673 105.562L92.0124 107.244Z" fill="#1C2B8A"/>
<path d="M92.0124 107.244L94.3673 108.926L96.7222 107.244L94.3673 105.562L92.0124 107.244Z" fill="#1C2B8A"/>
<path d="M84.2747 102.534L86.6296 100.852L82.929 98.4969L80.2376 100.179L84.2747 102.534Z" fill="#1C2B8A"/>
<path d="M79.2284 99.8426L81.2469 98.1605L65.7716 88.7407L63.7531 90.4228L79.2284 99.8426Z" fill="#1C2B8A"/>
<path d="M101.096 93.4506L103.787 94.7963L101.769 96.4784L99.4136 95.1327L101.096 93.4506Z" fill="#1C2B8A"/>
<path d="M97.7315 91.4321L100.086 92.7778L98.0679 94.4599L95.713 93.1142L97.7315 91.4321Z" fill="#1C2B8A"/>
<path d="M94.7037 92.4413L96.7222 90.7592L94.3673 89.0771L92.3488 90.7592L94.7037 92.4413Z" fill="#1C2B8A"/>
<path d="M91.3395 90.0864L93.358 88.4043L91.0031 87.0586L88.9846 88.7407L91.3395 90.0864Z" fill="#1C2B8A"/>
<path d="M87.6389 88.0679L89.6574 86.3858L87.3025 85.0401L85.284 86.7222L87.6389 88.0679Z" fill="#1C2B8A"/>
<path d="M84.2747 86.0494L86.2932 84.3673L83.9383 83.0216L81.9198 84.7037L84.2747 86.0494Z" fill="#1C2B8A"/>
<path d="M80.9105 84.0308L82.929 82.3487L80.5741 81.0031L78.5556 82.6852L80.9105 84.0308Z" fill="#1C2B8A"/>
<path d="M77.2099 82.0123L79.5648 80.3302L77.5463 78.9846L75.1914 80.6666L77.2099 82.0123Z" fill="#1C2B8A"/>
<path d="M75.1914 84.7037L77.2099 83.358L75.1914 82.0123L73.1729 83.358L75.1914 84.7037Z" fill="#1C2B8A"/>
<path d="M78.2191 86.7222L80.5741 85.3765L78.2191 84.0308L76.2006 85.7129L78.2191 86.7222Z" fill="#1C2B8A"/>
<path d="M81.9198 88.7407L83.9383 87.395L81.5833 86.0494L79.5648 87.395L81.9198 88.7407Z" fill="#1C2B8A"/>
<path d="M57.3611 86.7222L59.7161 85.3765L57.3611 84.0309L55.0062 85.3765L57.3611 86.7222Z" fill="#1C2B8A"/>
<path d="M53.6605 85.0401L56.0154 83.358L53.6605 81.6759L51.3056 83.358L53.6605 85.0401Z" fill="#1C2B8A"/>
<path d="M50.2963 83.0216L52.6512 81.0031L50.2963 79.6574L47.9414 81.3395L50.2963 83.0216Z" fill="#1C2B8A"/>
<path d="M46.5957 81.0031L48.9507 79.321L46.9321 77.9753L44.2408 79.321L46.5957 81.0031Z" fill="#1C2B8A"/>
<path d="M94.7037 104.216L98.4043 106.571L100.759 104.889L97.0586 102.87L94.7037 104.216Z" fill="#1C2B8A"/>
<path d="M91.6759 102.534L93.6944 103.88L95.713 102.198L93.6944 100.515L91.6759 102.534Z" fill="#1C2B8A"/>
<path d="M50.6327 75.9567L57.0247 79.9938L54.6697 81.6759L48.2777 76.966L50.6327 75.9567Z" fill="#1C2B8A"/>
<path d="M58.3704 83.358L60.3889 82.0123L58.3704 80.3302L56.0155 82.0123L58.3704 83.358Z" fill="#1C2B8A"/>
<path d="M62.071 85.3765L64.426 84.0308L62.071 82.3487L59.3797 84.0308L62.071 85.3765Z" fill="#1C2B8A"/>
<path d="M65.4352 87.7315L68.1266 86.0494L65.4352 84.0309L63.0803 86.0494L65.4352 87.7315Z" fill="#1C2B8A"/>
<path d="M68.7994 89.7499L71.1543 88.4043L68.7994 86.7222L66.7809 88.4043L68.7994 89.7499Z" fill="#1C2B8A"/>
<path d="M57.3611 74.6111L59.0432 73.2654L57.3611 71.5833L51.3055 74.9475L52.9876 76.2932L56.3518 73.9383L57.3611 74.6111Z" fill="#1C2B8A"/>
<path d="M56.0154 77.9753L58.3704 76.6296L56.6883 75.6204L54.3333 76.6296L56.0154 77.9753Z" fill="#1C2B8A"/>
<path d="M61.0617 76.966L63.0802 75.2839L61.0617 73.9382L58.7067 75.2839L61.0617 76.966Z" fill="#1C2B8A"/>
<path d="M59.716 80.3302C60.3889 79.8817 61.8018 78.9173 62.071 78.6481L59.716 76.966L57.3611 78.6481L59.716 80.3302Z" fill="#1C2B8A"/>
<path d="M63.4167 82.0123L65.7716 81.0031L63.4167 79.321L61.0617 81.0031L63.4167 82.0123Z" fill="#1C2B8A"/>
<path d="M64.4258 78.6481L66.4444 77.3024L64.4258 75.9567L62.4073 77.3024L64.4258 78.6481Z" fill="#1C2B8A"/>
<path d="M63.0802 73.9383L65.0987 72.5926L60.7253 69.5648L58.3703 71.2469L63.0802 73.9383Z" fill="#1C2B8A"/>
<path d="M66.4444 75.9567L68.463 74.611L66.4444 72.9289L64.4259 74.611L66.4444 75.9567Z" fill="#1C2B8A"/>
<path d="M70.1451 78.3117L71.8272 76.6296L70.1451 74.9475L67.7902 76.6296L70.1451 78.3117Z" fill="#1C2B8A"/>
<path d="M67.7901 80.6666L69.8086 79.3209L67.7901 77.6388L65.7716 79.3209L67.7901 80.6666Z" fill="#1C2B8A"/>
<path d="M67.4537 84.3673L69.1358 83.0216L67.4537 81.3395L65.0988 83.0216L67.4537 84.3673Z" fill="#1C2B8A"/>
<path d="M70.4815 86.3858L72.8364 85.0401L70.4815 83.358L68.463 85.0401L70.4815 86.3858Z" fill="#1C2B8A"/>
<path d="M72.4999 91.4321L74.5185 90.0864L72.4999 88.7407L70.145 90.0864L72.4999 91.4321Z" fill="#1C2B8A"/>
<path d="M76.2006 93.787L78.5555 92.1049L76.2006 90.7592L73.8456 92.1049L76.2006 93.787Z" fill="#1C2B8A"/>
<path d="M73.8457 80.3302L75.8642 78.6481L73.8457 76.966L71.4908 78.6481L73.8457 80.3302Z" fill="#1C2B8A"/>
<path d="M71.4907 82.6852L73.5092 81.3395L71.1543 79.6574L69.1358 81.3395L71.4907 82.6852Z" fill="#1C2B8A"/>
<path d="M74.1821 88.4043L76.2006 87.0586L74.1821 85.3765L71.8272 87.0586L74.1821 88.4043Z" fill="#1C2B8A"/>
<path d="M89.9938 98.4969L92.0123 100.179L89.9938 101.525L87.9753 100.179L89.9938 98.4969Z" fill="#1C2B8A"/>
<path d="M91.0031 103.207L93.0216 104.889L91.0031 106.235L88.9846 104.889L91.0031 103.207Z" fill="#1C2B8A"/>
<path d="M87.6388 101.188L89.6573 102.87L87.6388 104.216L85.6203 102.87L87.6388 101.188Z" fill="#1C2B8A"/>
<path d="M62.7438 87.0586L64.7623 88.7407L62.7438 90.0864L60.7253 88.7407L62.7438 87.0586Z" fill="#1C2B8A"/>
<path d="M60.0525 85.0401L62.071 86.7222L60.0525 88.0679L58.0339 86.7222L60.0525 85.0401Z" fill="#1C2B8A"/>
<path d="M101.769 104.552L103.787 102.87L98.7408 99.8426L96.7222 101.525L101.769 104.552Z" fill="#1C2B8A"/>
<path d="M105.133 102.534L107.488 100.852L102.778 98.1605L100.423 99.5061L105.133 102.534Z" fill="#1C2B8A"/>
<path d="M108.833 100.515L111.188 99.1697L108.833 97.4876L106.478 99.1697L108.833 100.515Z" fill="#1C2B8A"/>
<path d="M105.133 98.4969L107.151 96.8148L105.133 95.1327L103.114 96.8148L105.133 98.4969Z" fill="#1C2B8A"/>
<path d="M99.75 98.8333L101.769 97.4876L99.75 96.1419L97.3951 97.4876L99.75 98.8333Z" fill="#1C2B8A"/>
<path d="M95.3765 100.515L97.395 99.1697L95.3765 97.4876L93.358 99.1697L95.3765 100.515Z" fill="#1C2B8A"/>
<path d="M96.3858 96.8148L98.0679 95.4691L95.7129 94.1234L93.6944 95.4691L96.3858 96.8148Z" fill="#1C2B8A"/>
<path d="M92.0123 98.4969L93.6944 97.1512L91.3395 95.8056L89.3209 97.1512L92.0123 98.4969Z" fill="#1C2B8A"/>
<path d="M92.6852 94.7963L94.3672 93.4506L92.6852 92.1049L89.9938 93.4506L92.6852 94.7963Z" fill="#1C2B8A"/>
<path d="M88.6481 96.142L89.9938 95.1327L87.9753 93.787L86.2932 95.1327L88.6481 96.142Z" fill="#1C2B8A"/>
<path d="M86.6297 99.5061L88.6482 98.1605L86.6297 96.4784L84.2747 98.1605L86.6297 99.5061Z" fill="#1C2B8A"/>
<path d="M88.6482 93.1142L91.0031 91.4321L88.6482 90.0864L86.6297 91.4321L88.6482 93.1142Z" fill="#1C2B8A"/>
<path d="M85.6203 91.0957L87.6389 89.4136L85.6203 88.0679L82.929 89.4136L85.6203 91.0957Z" fill="#1C2B8A"/>
<path d="M84.6111 94.4599L86.6296 93.1142L84.6111 91.4321L82.5926 93.1142L84.6111 94.4599Z" fill="#1C2B8A"/>
<path d="M82.929 97.8241L85.284 96.142L82.929 94.4599L80.5741 96.142L82.929 97.8241Z" fill="#1C2B8A"/>
<path d="M79.5648 95.8056L81.5833 94.1235L79.5648 92.7778L77.2099 94.1235L79.5648 95.8056Z" fill="#1C2B8A"/>
<path d="M81.2469 92.4414L83.2654 91.0957L81.2469 89.4136L78.892 90.7593L81.2469 92.4414Z" fill="#1C2B8A"/>
<path d="M77.8828 90.4228L79.5648 88.7407L77.5463 87.3951L75.1914 88.7407L77.8828 90.4228Z" fill="#1C2B8A"/>
<path d="M62.0709 69.2284L111.861 98.4969L114.216 97.1512L63.753 67.8827L62.0709 69.2284Z" fill="#1C2B8A"/>
<path d="M111.219 103.616L99.8146 109.589L100.358 112.033L111.762 105.517L111.219 103.616Z" fill="#0B112D"/>
<path d="M112.576 109.046L100.901 114.477L101.444 117.192L113.119 110.675L112.576 109.046Z" fill="#0B112D"/>
<path d="M114.205 114.748L102.53 121.536L103.344 124.252L115.02 117.735L114.205 114.748Z" fill="#0B112D"/>
<path d="M115.563 119.907L103.887 126.967L104.702 128.596L116.106 122.079L115.563 119.907Z" fill="#0B112D"/>
<path d="M116.921 125.338L105.245 132.126L106.06 134.298L117.735 127.781L116.921 125.338Z" fill="#0B112D"/>
<path d="M108.775 99L108.232 99.8146L116.106 132.669L117.192 134.026L118.278 132.94V131.311L110.132 99.8146L109.589 99H108.775Z" fill="#0B112D"/>
<path d="M99.543 104.974L99 105.788L106.874 138.642L107.96 140L109.046 138.914V137.285L100.901 105.788L100.358 104.974H99.543Z" fill="#0B112D"/>
<path d="M108.503 125.609V125.881L109.861 125.609L109.318 127.51L107.689 127.238C107.508 127.057 107.091 126.695 106.874 126.695C106.657 126.695 106.241 126.333 106.06 126.152L105.517 125.609L106.06 124.795H107.96L108.503 125.609Z" fill="black"/>
<path d="M110.675 121.808L109.861 126.424L108.232 126.152L107.689 125.338V124.523V120.45L107.96 119.636L108.503 118.278L109.046 117.735L110.675 117.464V121.808Z" fill="#2B303B"/>
<path d="M115.563 136.742H114.748V138.371H115.834L116.649 137.013V134.57H116.106L115.834 136.199L115.563 136.742Z" fill="black"/>
<path d="M113.662 123.166L114.477 137.285L115.834 137.013L116.377 136.199L116.649 122.079L113.662 123.166Z" fill="#2B303B"/>
<path d="M104.159 109.046L102.53 109.589L102.258 107.96L103.344 107.146L104.159 107.417V109.046Z" fill="#FFCFA9"/>
<path d="M109.861 106.874L108.503 107.146L107.96 105.517L108.503 104.973H109.589L109.861 106.874Z" fill="#FFCFA9"/>
<path d="M111.197 122.873L110.697 122.372C110.509 122.185 110.404 121.93 110.404 121.665V114.637C110.404 114.399 110.211 114.205 109.972 114.205C109.899 114.205 109.827 114.224 109.764 114.259L104.966 116.897C104.649 117.072 104.254 117.016 103.998 116.76C103.925 116.687 103.866 116.6 103.826 116.505L103.122 114.863C103.089 114.787 103.066 114.707 103.053 114.625L102.386 110.395C102.311 109.926 102.577 109.47 103.022 109.303L103.341 109.184C103.914 108.969 104.544 109.315 104.67 109.914L105.222 112.533C105.365 113.213 106.141 113.544 106.73 113.175L109.185 111.641C109.568 111.401 109.77 110.675 109.318 110.675C109.111 110.675 108.725 109.695 108.532 109.131C108.513 109.075 108.499 109.016 108.491 108.957L108.334 107.859C108.273 107.433 108.491 107.016 108.876 106.823L108.925 106.799C109.435 106.544 110.054 106.766 110.286 107.287L110.901 108.671C110.932 108.74 110.97 108.805 111.015 108.865L111.462 109.461C111.65 109.713 111.947 109.861 112.262 109.861H112.305H113.057C113.274 109.861 113.484 109.791 113.657 109.661L114.363 109.132C114.438 109.075 114.506 109.008 114.563 108.932L114.949 108.417C115.161 108.134 115.507 107.984 115.859 108.023L116.827 108.131C117.341 108.188 117.727 108.628 117.716 109.146L117.47 120.974C117.466 121.164 117.407 121.349 117.302 121.507L117.081 121.838C116.976 121.996 116.829 122.12 116.655 122.197L114.671 123.079C114.543 123.136 114.405 123.166 114.265 123.166H112.848H111.904C111.639 123.166 111.385 123.06 111.197 122.873Z" fill="url(#paint1_linear)"/>
<path d="M113.119 108.775V109.589L113.391 109.861L114.205 109.318L115.02 108.503L114.748 107.689H113.391V107.417V107.146L113.662 105.788L113.119 104.973L112.576 105.245L112.033 106.06H111.762V103.887L110.404 104.159V108.775H113.119Z" fill="#FFCFA9"/>
<path d="M116.106 106.603L115.02 107.689H113.119L113.391 107.146L113.662 105.788L113.119 104.974L112.576 105.245L112.033 106.06H111.762V103.887H111.49L110.404 104.159V102.53C110.404 102.313 110.766 101.896 110.947 101.715L112.033 101.444L113.662 101.172L115.291 101.715L116.377 102.53L116.106 106.603Z" fill="#341300"/>
<path d="M35.2692 82.7821L35.9808 83.2564L36.4551 83.7308L35.9808 85.6282L35.5064 87.0513L35.2692 87.2885L34.7949 87.5256L34.3205 86.8141V84.4423L35.2692 82.7821Z" fill="#FFE924"/>
<path d="M39.3013 88L38.8269 86.5769H39.3013L39.7757 86.1026L40.25 85.6282H41.6731L42.1474 86.3398L40.25 88H39.7757H39.3013Z" fill="#FFE924"/>
<path d="M37.8782 77.0897V74.4808H39.0641V76.3782V80.1731L38.3526 85.391L39.0641 87.5256L40.25 86.5769V83.9679L40.9615 80.1731L41.6731 74.7179V72.109L35.2692 69.0256L35.032 73.2949L35.7436 74.4808V79.2244L35.032 83.2564L36.4551 83.9679L36.9295 81.359L37.8782 77.0897Z" fill="black"/>
<path d="M35.0321 68.7885L31 64.7564L32.8974 63.8077L35.5064 65.9423V67.1282V68.7885H35.0321Z" fill="#E4A675"/>
<path d="M43.8077 60.0128L43.3333 63.5705L44.2821 65.7051L44.9936 62.1475L45.7051 60.9616V58.8269V56.9295H44.9936L44.7564 59.3013L43.8077 60.0128Z" fill="#E4A675"/>
<path d="M41.4359 67.3654L41.6731 72.109L35.2692 69.0256V67.1282L35.0321 66.6538V62.1474L34.5577 61.6731L33.3718 64.2821L32.4231 64.7564L31.7115 64.9936L31 64.7564V63.3333L31.7115 61.6731L32.8974 59.7756L33.8462 57.8782L35.2692 56.4551L35.9808 56.9295L35.5064 57.641L35.2692 59.0641V60.25L35.9808 61.9103L36.9295 63.4395V63.0962L37.4038 62.3846L36.9295 60.25V59.3013L37.4038 57.4038L38.3526 58.8269H39.5385H40.25L42.1474 60.25L44.7564 67.1282L44.0449 68.5513H42.1474L41.4359 67.3654Z" fill="#FFE600"/>
<path d="M42.6218 59.0641C43.1752 59.2222 44.3295 59.5385 44.5192 59.5385L44.9936 56.9295H45.4679V55.7436L43.8077 55.5064L42.6218 59.0641Z" fill="#5C5CAA" stroke="black" stroke-opacity="0.8"/>
<path d="M35.7436 62.1474C35.9808 62.3846 37.4038 65.2308 37.4038 65.4679V62.859V61.9103L36.9295 60.4872L37.1667 59.0641L37.641 57.8782V56.6923L39.3013 56.4551V55.7436V55.0321L39.7756 54.5577L40.7244 53.8462L41.6731 52.8974L41.9102 52.1859L41.4359 51.7115L40.7244 51H39.0641H37.8782L36.9295 51.4744L36.4551 52.6603L38.3526 52.8974L38.5897 53.3718L38.3526 54.0833H37.8782V53.609H37.641H37.4038V53.3718H37.1667L36.9295 53.609L36.6923 53.8462L36.4551 54.0833V55.7436L35.7436 56.9295L35.032 57.8782V59.3013C35.1902 60.1709 35.5538 61.9577 35.7436 62.1474Z" fill="#130700"/>
<path d="M36.2179 52.6603V54.0833L36.6923 53.609V52.6603H36.2179Z" fill="#130700"/>
<path d="M37.1667 53.609L36.6923 53.8462L36.4551 52.6603L38.3526 52.8974L38.5898 53.3718L38.3526 54.0833H38.1154H37.8782L37.641 53.609H37.1667Z" fill="#FFE600"/>
<path d="M39.7756 57.1667L39.3013 58.8269L38.3526 59.3013L37.8782 58.8269L37.641 58.1154V56.6923L39.3013 56.4551V55.0321L41.6731 52.8974V56.4551L41.1987 57.4038H40.25L39.7756 57.1667Z" fill="#E4A675"/>
<path d="M83.7069 114.603L81.7241 115V111.034L82.5172 110.241H84.8966L85.2931 111.828L84.8966 113.017L83.7069 114.603Z" fill="#E48901"/>
<path d="M67.8448 104.69L71.5 107V109L67.8448 106.672L65.069 107.466L62.6897 107.862H59.9138L55.9483 107.069L53.1724 105.879L51.1897 103.897L50 102.31V99.5345L51.5862 102.31L55.5517 104.69C57.0057 104.954 59.9931 105.483 60.3103 105.483H64.2759L67.8448 104.69Z" fill="#3C2B86"/>
<path d="M71.5 107L71.4138 109.448L81.7241 115V113.017V111.034L82.5172 110.241H84.8965L76.9655 105.483L74.5862 104.293L72.6034 105.483L71.5 107Z" fill="#FF9900"/>
<path d="M72.6034 100.328L71.0172 102.707C71.6792 103.148 73.0638 104.231 73.8528 104.69L72.6034 105.483L71.5 107L67.8448 104.69L65.8621 105.086L63.0862 105.483H60.3103L56.7414 105.086L54.3621 103.897L51.5862 101.914C51.0575 101.121 50 99.4552 50 99.1379V97.5517L51.5862 95.9655L54.3621 93.5862L57.5345 92.7931L61.5 92L65.069 92.7931L68.2414 93.5862L70.2241 94.7759L71.8103 96.7586L72.6034 98.7414V100.328Z" fill="#D2D6FF"/>
<path d="M53.9655 97.9483L52.3793 99.5345V98.3448L53.1724 97.1552L54.7586 95.9655L57.931 94.3793L60.7069 93.9828L63.8793 94.3793L67.0517 95.1724L69.0345 96.3621L70.2241 97.9483L70.6207 99.931L69.431 97.9483L67.0517 96.7586L64.6724 95.9655C63.0862 95.8333 59.8345 95.569 59.5172 95.569C59.1207 95.569 56.7414 96.3621 55.9483 96.7586C55.3138 97.0759 54.3621 97.6839 53.9655 97.9483Z" fill="#3C2B86"/>
<path d="M53.569 101.517L52.3793 99.931L53.569 98.3448L54.7586 97.5517L57.1379 96.3621L59.5172 95.569L63.0862 95.9655L66.6552 96.7586L69.8276 98.3448L70.6207 100.328L67.8448 102.707L64.2759 103.897L59.5172 103.5L55.9483 102.707L53.569 101.517Z" fill="#C4C4C4" fill-opacity="0.92"/>
</g>
<defs>
<filter id="filter0_d" x="0" y="0" width="158" height="152" filterUnits="userSpaceOnUse" color-interpolation-filters="sRGB">
<feFlood flood-opacity="0" result="BackgroundImageFix"/>
<feColorMatrix in="SourceAlpha" type="matrix" values="0 0 0 0 0 0 0 0 0 0 0 0 0 0 0 0 0 0 127 0"/>
<feOffset dx="2" dy="4"/>
<feGaussianBlur stdDeviation="2"/>
<feColorMatrix type="matrix" values="0 0 0 0 0 0 0 0 0 0 0 0 0 0 0 0 0 0 0.25 0"/>
<feBlend mode="normal" in2="BackgroundImageFix" result="effect1_dropShadow"/>
<feBlend mode="normal" in="SourceGraphic" in2="effect1_dropShadow" result="shape"/>
</filter>
<linearGradient id="paint0_linear" x1="2" y1="72" x2="152" y2="72" gradientUnits="userSpaceOnUse">
<stop stop-color="#7E85BA"/>
<stop offset="0.494792" stop-color="#B9C1FE"/>
<stop offset="1" stop-color="#7E85BA"/>
</linearGradient>
<linearGradient id="paint1_linear" x1="102.258" y1="114.748" x2="117.735" y2="114.748" gradientUnits="userSpaceOnUse">
<stop stop-color="#E52D27"/>
<stop offset="1" stop-color="#B31217"/>
</linearGradient>
</defs>
</svg>
