<svg width="44" height="58" viewBox="0 0 44 58" fill="none" xmlns="http://www.w3.org/2000/svg">
<path d="M42.7253 41.8102C39.5253 54.6102 28.7253 57.8102 23.7253 57.8102C20.8919 57.4769 15.1253 56.7102 14.7253 56.3102C14.2253 55.8102 11.2253 54.8102 6.22528 49.8102C2.22528 45.8102 0.558619 39.8102 0.225288 37.3102C-1.27472 31.8102 5.22529 15.8102 4.7253 19.8102C4.20733 23.9541 8.2253 30.1435 10.7253 32.8102C9.5253 31.2102 8.89196 27.1435 8.72529 25.3102C5.7253 10.8102 28.8162 -2.1898 27.2253 0.310195C24.4253 4.71018 26.0586 11.1435 27.2253 13.8102C31.392 19.8102 37.2253 31.4977 35.7253 32.8102C38.9253 30.0102 39.392 22.9769 39.2253 19.8102C41.7253 21.8102 45.9253 29.0102 42.7253 41.8102Z" fill="#F3705A"/>
<path d="M32.4207 49.9737C30.8164 56.3947 25.4017 58 22.8949 58C21.4744 57.8328 18.5832 57.4482 18.3827 57.2475C18.132 56.9967 16.6279 56.4951 14.1211 53.9869C12.1157 51.9803 11.2801 48.9705 11.113 47.7163C10.3609 44.9573 13.6197 36.9311 13.3691 38.9376C13.1094 41.0164 15.1238 44.1212 16.3772 45.459C15.7756 44.6563 15.4581 42.6163 15.3745 41.6966C13.8704 34.4228 25.4473 27.9015 24.6497 29.1556C23.2458 31.3628 24.0647 34.5901 24.6497 35.9278C26.7387 38.9376 29.6633 44.8006 28.9112 45.459C30.5156 44.0544 30.7495 40.5261 30.666 38.9376C31.9194 39.9409 34.0251 43.5527 32.4207 49.9737Z" fill="#FFD15C"/>
</svg>
