<svg width="431" height="341" viewBox="0 0 431 341" fill="none" xmlns="http://www.w3.org/2000/svg">
<path d="M186.128 269.404L183.626 270.357C183.542 270.388 183.464 270.431 183.391 270.484L182.063 271.454C182.021 271.485 181.982 271.518 181.945 271.555L181.793 271.707C181.605 271.895 181.5 272.149 181.5 272.414V273.086C181.5 273.351 181.605 273.605 181.793 273.793L182.385 274.385C182.461 274.461 182.549 274.525 182.645 274.573L183.436 274.968C183.479 274.989 183.523 275.008 183.567 275.022L184.748 275.416C184.913 275.471 185.09 275.482 185.26 275.448L187.5 275L188 274.75L188.25 274.625L188.419 274.54C188.473 274.513 188.524 274.482 188.572 274.446L190.443 273.043C190.481 273.014 190.517 272.983 190.55 272.95L192.95 270.55C192.983 270.517 193.014 270.481 193.043 270.443L195.943 266.576C195.981 266.525 196.024 266.479 196.07 266.436L201.5 261.5L204.749 259.226C205.867 258.443 207.257 258.151 208.596 258.419L209 258.5L209.25 258.25C209.412 258.088 209.513 257.876 209.538 257.649L210.779 246.06C210.854 245.361 210.015 244.95 209.509 245.438C209.368 245.573 209.181 245.649 208.986 245.649H207.855H205.812C205.739 245.649 205.666 245.641 205.595 245.625L203.094 245.069C202.717 244.985 202.426 244.686 202.352 244.307C202.203 243.541 201.256 243.255 200.708 243.811L199.766 244.766C199.659 244.875 199.578 245.006 199.53 245.151C198.913 247.007 197.809 250.396 197.809 250.672C197.809 250.959 195.896 254.857 194.939 256.771L191.71 262.511L187.809 267.831C187.778 267.872 187.745 267.911 187.709 267.947L186.48 269.177C186.38 269.277 186.26 269.354 186.128 269.404Z" fill="#FFCFA9"/>
<path d="M179.538 271.62L180.07 271.315C181.115 270.719 182.297 270.405 183.5 270.405L182.124 271.407C182.057 271.456 181.993 271.511 181.934 271.57C181.367 272.136 181.304 273.033 181.785 273.674L181.845 273.756C181.963 273.912 182.106 274.048 182.269 274.156L182.674 274.426C183.639 275.069 184.814 275.333 185.966 275.201C186.411 275.15 186.813 275.104 187.046 275.069C187.5 275 188.178 274.595 188.5 274.5L189.631 273.631C191.483 272.207 193.088 270.489 194.384 268.546C194.992 267.634 195.67 266.773 196.458 266.01C198.8 263.743 203.314 259.641 203.55 259.641L205.579 258.288C206.361 257.767 207.28 257.489 208.22 257.489C210.166 257.489 212 258.656 212.419 260.557C212.566 261.228 212.63 261.82 212.519 262.153C212.16 263.229 212.519 264.664 212.519 265.382C212.519 266.099 211.443 266.817 210.725 267.176C208.504 268.286 208.774 271.65 208.168 274.059C208.05 274.528 207.941 274.897 207.855 275.069C207.568 275.643 207.018 278.417 206.779 279.733L206.264 283.335C206.148 284.15 205.449 284.756 204.626 284.756C204.052 284.756 203.606 284.256 203.671 283.686L205.262 269.682C205.306 269.302 205.008 268.969 204.626 268.969C204.152 268.969 203.682 269.06 203.242 269.236L203.04 269.317C202.429 269.561 201.875 269.927 201.41 270.392L200.321 271.481L197.092 274.351C195.663 276.018 194.013 277.48 192.187 278.697L191.71 279.015C190.753 279.494 188.696 280.45 188.122 280.45H185.611C183.973 280.45 182.372 279.966 181.01 279.057L180.947 279.015L179.153 277.939L178.337 277.449C177.711 277.074 177.259 276.465 177.082 275.756C177.028 275.538 177 275.314 177 275.089V275.054C177 274.154 177.4 273.3 178.091 272.724L178.812 272.123C179.039 271.935 179.281 271.766 179.538 271.62Z" fill="#333333"/>
<path d="M284.5 196.5L222.5 234L270.5 261.5L284.5 196.5Z" fill="#D32D80"/>
<path d="M200.602 233.962L200.115 241.684C200.043 242.817 200.547 243.91 201.456 244.592C201.815 244.861 202.224 245.056 202.66 245.165L204.806 245.701C205.599 245.9 206.413 246 207.231 246H210.18C210.536 246 210.884 245.898 211.183 245.705C211.392 245.57 211.572 245.394 211.712 245.187L214.313 241.344L217.901 237.038L221.347 231.712C221.68 231.198 221.965 230.654 222.198 230.087L224.031 225.637C224.249 225.106 224.421 224.558 224.546 223.998L225.794 218.382C226.35 216.157 228.806 215.001 230.875 215.99L259.16 229.504L265.246 231.746C265.733 231.925 266.233 232.066 266.741 232.168L271.785 233.177C272.692 233.358 273.621 233.413 274.543 233.339L279.533 232.94C281.231 232.804 282.866 232.237 284.283 231.292L286.49 229.821C287.853 228.912 289.454 228.428 291.092 228.428H294.166C294.983 228.428 295.798 228.327 296.591 228.129L298.892 227.554C300.369 227.184 301.743 226.482 302.908 225.501L307.308 221.796C307.738 221.434 308.137 221.036 308.5 220.607L310.728 217.974C311.503 217.057 312.108 216.009 312.511 214.878L313.112 213.196C313.498 212.117 313.695 210.979 313.695 209.833V203.804C313.695 202.532 313.45 201.265 312.977 200.084L311.982 197.43C311.928 197.287 311.854 197.152 311.762 197.029C311.24 196.333 310.258 196.178 309.547 196.68L304.725 200.084L298.388 203.886C297.83 204.221 297.242 204.5 296.63 204.72L290.222 207.027C289.136 207.418 287.99 207.618 286.835 207.618H276.162C275.592 207.618 275.024 207.565 274.464 207.458L271.712 206.934C269.377 206.489 267.616 204.556 267.391 202.189C267.186 200.044 265.715 198.232 263.658 197.591L246.696 192.308C245.756 192.015 244.732 192.268 244.037 192.963C243.835 193.165 243.603 193.332 243.349 193.459L243.206 193.531C241.807 194.23 240.117 193.955 239.012 192.847L238 191.832L236.267 190.233C235.105 189.162 233.707 188.381 232.186 187.954L229.382 187.168C228.2 186.696 226.934 186.45 225.662 186.45H223.321C221.648 186.45 220.001 186.87 218.532 187.671L216.824 188.603L216.045 188.95C214.44 189.663 213.052 190.786 212.019 192.206L211.59 192.795C211.017 193.584 210.561 194.453 210.239 195.373L208.214 201.16L204.626 215.512L203.309 224.07C203.23 224.582 203.112 225.088 202.955 225.582L201.053 231.559C200.805 232.339 200.653 233.146 200.602 233.962Z" fill="#425D8C"/>
<path d="M97 167V258.5L177 304L178.5 213.5L97 167Z" fill="#1B8E8E"/>
<path d="M246.5 81L97 167L178.5 213.5L326.5 127L246.5 81Z" fill="#81EAD6"/>
<path d="M178 213.5L326 127V218L322.5 220L256.044 176.5L182.5 218V299.5L177 304L178 213.5Z" fill="#1CA4A4"/>
<path d="M236 187.398V189.823C236 190.909 236.369 191.962 237.047 192.809L237.094 192.868C237.684 193.604 238.487 194.139 239.394 194.398C240.725 194.778 242.156 194.531 243.282 193.727L243.929 193.265C244.635 192.761 245.227 192.114 245.667 191.366L250 184L253.046 180.084C253.348 179.695 253.622 179.285 253.864 178.856L257.563 172.311C258.817 170.093 261.797 169.597 263.701 171.29C264.225 171.755 264.617 172.35 264.838 173.014L265.574 175.223C265.857 176.072 266.05 176.949 266.149 177.838L267 185.5V197.5V201.363C267 202.114 267.143 202.858 267.422 203.555C267.801 204.502 268.419 205.335 269.215 205.972L269.277 206.021C270.08 206.664 271.03 207.096 272.041 207.28L274.191 207.671C275.392 207.89 276.616 207.959 277.835 207.878L283.5 207.5H283.86C286.275 207.5 288.678 207.163 291 206.5L299.903 202.939C300.632 202.647 301.332 202.284 301.991 201.856L306.551 198.892C309.085 197.245 309.979 193.957 308.627 191.254C308.215 190.429 308 189.52 308 188.598V179.992C308 177.006 308.315 174.028 308.941 171.108L310.013 166.104C310.667 163.056 311.819 160.136 313.423 157.462C314.801 155.166 315.846 152.685 316.528 150.095L316.81 149.021C317.6 146.019 318 142.929 318 139.825V139V137.324C318 134.778 317.797 132.238 317.442 129.717C317.204 128.024 317 126.442 317 126C317 125.408 315.174 124.049 313.549 122.977C312.532 122.306 311.422 121.794 310.275 121.384L309.492 121.104C306.563 120.058 303.39 119.902 300.373 120.657C299.46 120.885 298.568 121.195 297.71 121.583L286.212 126.775C284.425 127.582 282.486 128 280.524 128C277.585 128 274.722 128.937 272.352 130.675L268.5 133.5L260 141.5L258.669 142.952C255.9 145.973 253.513 149.322 251.562 152.924L248 159.5L241.5 173.5L239.241 177.372C238.416 178.787 237.739 180.283 237.221 181.837L236.6 183.7C236.203 184.892 236 186.141 236 187.398Z" fill="#FFE600"/>
<path d="M267.053 92.8092V89.5L268.489 91.5L271.359 99.2672L274 103.5L276 110.389L274.947 116.13L274.229 116.489L272.435 116.13C271.957 115.532 270.928 114.192 270.641 113.618C270.282 112.901 268.489 111.107 268.489 110.389C268.489 109.815 267.293 107.997 266.695 107.16V103.931L267.053 99.2672V95.3206V92.8092Z" fill="#FFCFA9"/>
<path d="M268.746 129.401L268.267 130.52C268.176 130.731 268.13 130.958 268.13 131.188C268.13 132.465 269.488 133.283 270.617 132.688L278.017 128.782C278.984 128.272 280.08 128.063 281.166 128.182C282.042 128.278 282.929 128.161 283.75 127.841L288.939 125.817L294.164 123.518C296.622 122.436 298.771 120.761 300.42 118.641C302.325 116.022 303.866 113.158 305.003 110.125L305.443 108.954C306.392 106.343 306.878 103.586 306.878 100.808V99.2672V94.2443C306.997 92.9288 305.73 89.574 305.443 89C305.084 88.2824 303.649 83.1221 303.29 82.0458C303.216 81.8233 303.044 81.4844 302.816 81.0833C301.373 78.5447 299.218 76.5006 296.863 74.7736L295.722 73.9364C295.267 73.6028 294.784 73.3083 294.28 73.056C292.891 72.3615 291.359 72 289.807 72H288.939C285.838 72 282.73 72.2664 279.732 73.0607C279.152 73.2144 278.709 73.3479 278.534 73.4351C278.242 73.5813 277.192 74.044 276.012 74.5576C273.893 75.4794 271.981 76.8214 270.409 78.5147L269.658 79.3238C268.649 80.4099 267.869 81.6871 267.362 83.08C266.921 84.2947 266.695 85.5773 266.695 86.8698V88.145C266.695 88.5898 266.95 89.309 267.263 90.0159C267.78 91.1851 268.315 92.3512 268.683 93.5759C269.031 94.7356 269.503 95.8545 270.091 96.9129L270.824 98.2325C272.131 100.586 273.1 103.109 273.847 105.696C274.249 107.091 274.662 108.386 274.946 108.954C275.664 110.389 274.946 114.336 274.946 115.771V116.907C274.946 119.423 273.919 121.773 272.794 124.023C272.724 124.162 272.654 124.292 272.584 124.413C271.961 125.488 270.942 126.303 270.134 127.245L269.966 127.442C269.462 128.029 269.051 128.69 268.746 129.401Z" fill="#59290E"/>
<path d="M222.566 233.75L221 248.71L278.5 281L292.322 194.957L285.364 192L283.986 198.436L270.578 261.061L246.572 247.405L222.566 233.75Z" fill="#B21B87"/>
<path d="M339.465 246.762L278.5 281L292 195.5L353.034 159.957L339.465 246.762Z" fill="#333333"/>
<path d="M346.075 157L285.364 192.313L292.322 195.445L353 160L346.075 157Z" fill="#B21B87"/>
<path d="M271.5 277L274.405 326.608L278.5 327.8V281L271.5 277Z" fill="#333333"/>
<path d="M221.348 248.906V295.47L225 297L228 252.5L221.348 248.906Z" fill="#333333"/>
<path d="M228.654 295.122L225 297L228 252.5L230.5 254L228.654 295.122Z" fill="#333333"/>
<path d="M282.059 326.434L278.5 327.797V281L282.059 279V326.434Z" fill="#333333"/>
<path d="M332.159 293.383L329 252.5L336.16 248.5V295.277L332.159 293.383Z" fill="#333333"/>
<path d="M339.291 293.382L336.16 295.283V248.5C338 247.5 339 247 339 247C339 247 339.291 277.9 339.291 293.382Z" fill="#333333"/>
<path d="M267 136L206.667 170.333H200.667L161 147.333L159 144L161 142.333L167.667 139L170.667 137L169.333 136L209.667 112.333L212.667 113.667L217 110L215.667 109.333L217.667 108L221.667 107L225 108L267 131.333V136Z" fill="#E0E0E0"/>
<path d="M201.333 168L160.333 143L159.333 144.333L160.333 147L200.667 170.333H206L266.667 135.333V131.333H265.667C265.667 131.333 265.667 133.333 264 134.667C262.333 136 204.667 168 204.667 168H201.333Z" fill="#B5B5B5"/>
<path d="M167 139.333H170H171L173.333 137.667L172.333 136.667L213 113L215.333 114.333L220 111L218.333 109.667L223 107.333L224.667 105.667L226 104V55L223.333 54L220 56L162 90L160.667 91.6667V94.6667V140.333L162.667 141.667L167 139.333Z" fill="black"/>
<path d="M162.773 138.862V92.8623L222.773 57.8623V103.862L162.773 138.862Z" fill="#5E2750"/>
<path d="M184.265 93.25V89.4347L203.341 78.8369V82.6521L184.265 93.25Z" fill="#2B303B"/>
<path d="M184.265 87.7392L203.341 77.1414V78.837L184.265 89.4348V87.7392Z" fill="#62BA76"/>
<path d="M173.667 100.739V99.0435L212.667 77V78.6957L173.667 100.739Z" fill="#62BA76"/>
<path d="M173.667 126.174V100.739L212.667 78.6956V104.554L173.667 126.174Z" fill="#2B303B"/>
<path d="M183.667 107.333L187.667 102.667L186.667 101.333L181 107.333V109.333H190L189 107.333H183.667Z" fill="#E0E0E0"/>
<path d="M192.333 108.667V96.6666L194.333 95.3333V107.667L192.333 108.667Z" fill="#E0E0E0"/>
<path d="M202.667 98H197L196.333 96L205 96.6667V98L199 104.333V102L202.667 98Z" fill="#E0E0E0"/>
<path d="M164.667 148L165.333 147L168 148.667L167.333 149.667L164.667 148Z" fill="#171717"/>
<path d="M168 150L168.667 149L171.333 150.667L170.667 151.667L168 150Z" fill="#171717"/>
<path d="M230 132.667C229.179 132.774 205.333 146.333 205.333 147C205.333 147.667 220.333 157.333 221 157.333C221.667 157.333 247.333 142.333 247.333 142.333C247.329 141.774 230.821 132.56 230 132.667Z" fill="#C4C4C4"/>
<path d="M193.667 152.333L191.333 154L189 152.333L191.333 150.667L193.667 152.333Z" fill="black"/>
<path d="M193.667 152.333L191.333 154L189 152.333L191.333 150.667L193.667 152.333Z" fill="black"/>
<path d="M201.333 147.667L199 146L202.667 143.667L205.333 145.333L201.333 147.667Z" fill="black"/>
<path d="M206.333 145L204.333 143.333L219.667 134L221.667 135.667L206.333 145Z" fill="black"/>
<path d="M184.667 138.667L182 140L184 141.667L186.333 140.333L184.667 138.667Z" fill="black"/>
<path d="M188 136.667L185.667 138L187.667 139.667L190 138.333L188 136.667Z" fill="black"/>
<path d="M191 137.667L189 136L191.333 134.333L193.333 136L191 137.667Z" fill="black"/>
<path d="M194.333 135.333L192.333 133.667L194.667 132.333L196.667 134L194.333 135.333Z" fill="black"/>
<path d="M198 133.333L196 131.667L198.333 130.333L200.333 132L198 133.333Z" fill="black"/>
<path d="M201.333 131.333L199.333 129.667L201.667 128.333L203.667 130L201.333 131.333Z" fill="black"/>
<path d="M204.667 129.333L202.667 127.667L205 126.333L207 128L204.667 129.333Z" fill="black"/>
<path d="M208.333 127.333L206 125.667L208 124.333L210.333 126L208.333 127.333Z" fill="black"/>
<path d="M210.333 130L208.333 128.667L210.333 127.333L212.333 128.667L210.333 130Z" fill="black"/>
<path d="M207.333 132L205 130.667L207.333 129.333L209.333 131L207.333 132Z" fill="black"/>
<path d="M203.667 134L201.667 132.667L204 131.333L206 132.667L203.667 134Z" fill="black"/>
<path d="M228 132L225.667 130.667L228 129.333L230.333 130.667L228 132Z" fill="black"/>
<path d="M231.667 130.333L229.333 128.667L231.667 127L234 128.667L231.667 130.333Z" fill="black"/>
<path d="M235 128.333L232.667 126.333L235 125L237.333 126.667L235 128.333Z" fill="black"/>
<path d="M238.667 126.333L236.333 124.667L238.333 123.333L241 124.667L238.667 126.333Z" fill="black"/>
<path d="M191 149.333L187.333 151.667L185 150L188.667 148L191 149.333Z" fill="black"/>
<path d="M194 147.667L192 149L190 147.333L192 145.667L194 147.667Z" fill="black"/>
<path d="M234.667 121.333L228.333 125.333L230.667 127L237 122.333L234.667 121.333Z" fill="black"/>
<path d="M227 128.667L225 127.333L227 125.667L229.333 127.333L227 128.667Z" fill="black"/>
<path d="M223.333 130.667L221 129.333L223.333 127.667L226 129.333L223.333 130.667Z" fill="black"/>
<path d="M220 133L217.333 131.333L220 129.333L222.333 131.333L220 133Z" fill="black"/>
<path d="M216.667 135L214.333 133.667L216.667 132L218.667 133.667L216.667 135Z" fill="black"/>
<path d="M228 120L226.333 118.667L228 117L234 120.333L232.333 121.667L229 119.333L228 120Z" fill="black"/>
<path d="M229.333 123.333L227 122L228.667 121L231 122L229.333 123.333Z" fill="black"/>
<path d="M224.333 122.333L222.333 120.667L224.333 119.333L226.667 120.667L224.333 122.333Z" fill="black"/>
<path d="M225.667 125.667C225 125.222 223.6 124.267 223.333 124L225.667 122.333L228 124L225.667 125.667Z" fill="black"/>
<path d="M222 127.333L219.667 126.333L222 124.667L224.333 126.333L222 127.333Z" fill="black"/>
<path d="M221 124L219 122.667L221 121.333L223 122.667L221 124Z" fill="black"/>
<path d="M222.333 119.333L220.333 118L224.667 115L227 116.667L222.333 119.333Z" fill="black"/>
<path d="M219 121.333L217 120L219 118.333L221 120L219 121.333Z" fill="black"/>
<path d="M215.333 123.667L213.667 122L215.333 120.333L217.667 122L215.333 123.667Z" fill="black"/>
<path d="M217.667 126L215.667 124.667L217.667 123L219.667 124.667L217.667 126Z" fill="black"/>
<path d="M218 129.667L216.333 128.333L218 126.667L220.333 128.333L218 129.667Z" fill="black"/>
<path d="M215 131.667L212.667 130.333L215 128.667L217 130.333L215 131.667Z" fill="black"/>
<path d="M213 136.667L211 135.333L213 134L215.333 135.333L213 136.667Z" fill="black"/>
<path d="M209.333 139L207 137.333L209.333 136L211.667 137.333L209.333 139Z" fill="black"/>
<path d="M211.667 125.667L209.667 124L211.667 122.333L214 124L211.667 125.667Z" fill="black"/>
<path d="M214 128L212 126.667L214.333 125L216.333 126.667L214 128Z" fill="black"/>
<path d="M211.333 133.667L209.333 132.333L211.333 130.667L213.667 132.333L211.333 133.667Z" fill="black"/>
<path d="M195.667 143.667L193.667 145.333L195.667 146.667L197.667 145.333L195.667 143.667Z" fill="black"/>
<path d="M194.667 148.333L192.667 150L194.667 151.333L196.667 150L194.667 148.333Z" fill="black"/>
<path d="M198 146.333L196 148L198 149.333L200 148L198 146.333Z" fill="black"/>
<path d="M222.667 132.333L220.667 134L222.667 135.333L224.667 134L222.667 132.333Z" fill="black"/>
<path d="M225.333 130.333L223.333 132L225.333 133.333L227.333 132L225.333 130.333Z" fill="black"/>
<path d="M184 149.667L182 148L187 145L189 146.667L184 149.667Z" fill="black"/>
<path d="M180.667 147.667L178.333 146L183 143.333L185.333 144.667L180.667 147.667Z" fill="black"/>
<path d="M177 145.667L174.667 144.333L177 142.667L179.333 144.333L177 145.667Z" fill="black"/>
<path d="M180.667 143.667L178.667 142L180.667 140.333L182.667 142L180.667 143.667Z" fill="black"/>
<path d="M186 144L184 142.667L186 141.333L188.333 142.667L186 144Z" fill="black"/>
<path d="M190.333 145.667L188.333 144.333L190.333 142.667L192.333 144.333L190.333 145.667Z" fill="black"/>
<path d="M189.333 142L187.667 140.667L190 139.333L192 140.667L189.333 142Z" fill="black"/>
<path d="M193.667 143.667L192 142.333L194.333 141L196.333 142.333L193.667 143.667Z" fill="black"/>
<path d="M193 140L191.333 138.667L193 137.333L195.667 138.667L193 140Z" fill="black"/>
<path d="M197 141.333L195.667 140.333L197.667 139L199.333 140.333L197 141.333Z" fill="black"/>
<path d="M199 144.667L197 143.333L199 141.667L201.333 143.333L199 144.667Z" fill="black"/>
<path d="M197 138.333L194.667 136.667L197 135.333L199 136.667L197 138.333Z" fill="black"/>
<path d="M200 136.333L198 134.667L200 133.333L202.667 134.667L200 136.333Z" fill="black"/>
<path d="M201 139.667L199 138.333L201 136.667L203 138.333L201 139.667Z" fill="black"/>
<path d="M202.667 143L200.333 141.333L202.667 139.667L205 141.333L202.667 143Z" fill="black"/>
<path d="M206 141L204 139.333L206 138L208.333 139.333L206 141Z" fill="black"/>
<path d="M204.333 137.667L202.333 136.333L204.333 134.667L206.667 136L204.333 137.667Z" fill="black"/>
<path d="M207.667 135.667L206 134L208 132.667L210.333 134L207.667 135.667Z" fill="black"/>
<path d="M223.333 114.667L174 143.667L171.667 142.333L221.667 113.333L223.333 114.667Z" fill="black"/>
<path d="M172.491 196.406L186.17 187.104L187.747 185.317C187.613 185.164 187.452 185.028 187.264 184.915L187.811 185.244L187.747 185.317C188.515 186.191 188.41 187.617 187.37 188.31L173.585 197.5H173.038L172.491 196.406Z" fill="white"/>
<path d="M146.227 181.632V180.452L172.078 196.662H172.701L173.038 197.5H172.491L146.227 181.632Z" fill="#122258"/>
<path d="M187.606 184.665L164.186 170.301C163.883 170.115 163.504 170.103 163.19 170.273C158.184 172.974 149.35 177.826 146.43 179.727C146.2 179.877 146.153 180.086 146.161 180.254C146.17 180.445 146.313 180.592 146.475 180.693L171.93 196.602C172.27 196.815 172.704 196.803 173.033 196.573L187.657 186.337C188.246 185.924 188.22 185.042 187.606 184.665Z" fill="#1D3382"/>
<path d="M224.359 182.145L236.5 191.5L236 185.5L238.71 178.557L235.122 176.405L228.305 172.458L222.206 168.511L215.031 164.565L210.366 161.336L206.061 157.748L199 152.5C198.471 152.001 197.679 152.703 198.109 153.289L199 154.5C197.326 153.782 193.285 153.706 192.5 153.5C190.366 152.939 189.598 156.282 189 157C188.641 157.718 189.5 159.782 189.5 160.5C189.5 161.074 194.761 163.163 195 164L197.092 165.641L201.756 168.511L203.191 169.229H206.779L208.931 169.947L224.359 182.145Z" fill="#FFCFA9"/>
<path d="M246.962 132.634L259.25 141.932C259.671 142.251 260.268 142.187 260.612 141.786L263 139L265.369 136.631C265.455 136.545 265.558 136.474 265.67 136.425L268.293 135.259C269.022 134.934 269.096 133.928 268.422 133.5L267.053 132.634L264.183 131.198L256.649 127.252L248.47 123.34C248.421 123.317 248.375 123.29 248.33 123.259L244.271 120.435L240.228 117.623C240.173 117.584 240.114 117.551 240.052 117.525L236.5 116L233.5 115L229.497 113.666C229.186 113.562 228.843 113.617 228.581 113.814L227.228 114.829C227.079 114.941 226.964 115.092 226.896 115.266L226.337 116.7C226.147 117.188 226.365 117.74 226.837 117.965L228.9 118.952C228.966 118.984 229.029 119.023 229.087 119.069L231.444 120.928C231.501 120.974 231.534 121.043 231.534 121.116C231.534 121.293 231.349 121.408 231.19 121.33L228.908 120.202C228.655 120.077 228.356 120.096 228.121 120.252C227.62 120.587 227.664 121.338 228.201 121.611L231.534 123.305L241.311 127.177C241.436 127.226 241.549 127.3 241.645 127.395L246.962 132.634Z" fill="#FFCFA9"/>
<path d="M191 181.417L192.519 181.166L193.333 182L192.007 181.749H191.907H191.665L191 181.417Z" fill="#5F6678"/>
<path d="M189.719 180.392V181.285C190.344 181.473 191.192 181.781 191.665 181.821C191.794 181.832 192.228 181.867 192.221 181.821C192.167 181.417 192.46 181.305 192.579 181.226C192.142 180.63 191.095 179.714 191 179.667C190.881 179.607 190.434 179.617 190.315 179.617C190.22 179.617 189.819 180.153 189.719 180.392Z" fill="#FFBB40"/>
<path d="M170.894 169.191L170.774 169.847L170 169.43V168.894L170.298 168.417L170.774 168L171.549 168.417L170.894 169.191Z" fill="#D97C7B"/>
<path d="M172.085 170.741L172.145 170.145L189.838 180.392V181.345L172.085 170.741Z" fill="#E79C0B"/>
<path d="M189.838 180.451L172.264 170.264C172.121 170.181 172.323 169.673 172.502 169.489L190.255 179.915L189.838 180.451Z" fill="#E6A936"/>
<path d="M172.86 169.191C172.717 169.144 172.82 169.41 172.621 169.549C178.519 173.004 190.208 180.117 190.255 179.974C190.303 179.831 190.722 179.686 191 179.667C185.102 176.251 173.003 169.239 172.86 169.191Z" fill="#FFBA3D"/>
<path d="M172.085 170.74L170.774 169.847L170.834 169.072L171.013 168.894L171.549 168.417L172.979 169.251C172.919 169.291 172.788 169.382 172.74 169.43L172.442 169.728L172.204 170.204L172.085 170.74Z" fill="#9CA4BB"/>
<path d="M120.536 152.879L120.293 153.024C119.769 153.338 119.311 153.751 118.945 154.24C118.332 155.058 118 156.053 118 157.075V158.5V159V169.5C118 169.812 118.156 170.104 118.416 170.277L119.256 170.837C119.418 170.945 119.591 171.037 119.773 171.109L120.377 171.351C121.449 171.78 122.593 172 123.748 172H126.697C127.547 172 128.377 171.749 129.084 171.277C130.281 170.479 131 169.136 131 167.697V157.119C131 155.762 130.461 154.461 129.502 153.502C128.846 152.846 128.018 152.379 127.119 152.155C126.71 152.052 126.287 152 125.866 152H123.708C122.59 152 121.494 152.304 120.536 152.879Z" fill="#EFF7FA"/>
<path d="M117.072 160.142L118.224 159.22C118.392 159.086 118.623 159.062 118.816 159.158C119.152 159.326 119.225 159.775 118.959 160.041L118.567 160.433C118.522 160.478 118.482 160.526 118.448 160.578L118.204 160.943C117.741 161.638 117.446 162.431 117.342 163.26L117.078 165.377C117.027 165.783 117.098 166.196 117.281 166.562L117.31 166.62C117.435 166.87 117.616 167.087 117.84 167.255L118.531 167.774C119.043 168.157 119.096 168.904 118.644 169.356C118.274 169.726 117.689 169.767 117.271 169.454L116.731 169.049C116.271 168.703 116 168.161 116 167.586V167V164.5V162.373C116 161.505 116.395 160.684 117.072 160.142Z" fill="#CEE8EE"/>
<path d="M120.372 158.154L119.583 157.562C119.528 157.521 119.476 157.476 119.427 157.427C119.154 157.154 119 156.783 119 156.396V156.118C119 155.433 119.387 154.806 120 154.5L121.824 153.588C122.598 153.201 123.45 153 124.314 153C125.413 153 126.488 153.325 127.403 153.935L127.5 154L128.844 155.008C129.257 155.318 129.5 155.804 129.5 156.32C129.5 156.756 129.327 157.173 129.019 157.481L128.693 157.807C128.565 157.935 128.424 158.051 128.273 158.151L128.026 158.316C127.35 158.767 126.585 159.069 125.783 159.203L125.124 159.313C124.381 159.437 123.621 159.424 122.883 159.277C121.972 159.094 121.115 158.711 120.372 158.154Z" fill="#59290E"/>
</svg>
