<svg width="167" height="59" viewBox="0 0 167 59" fill="none" xmlns="http://www.w3.org/2000/svg">
<path d="M64.7188 32.2031L57.2188 32.4609L55.5312 47.25C55.4688 47.6094 55.2656 47.8047 54.9219 47.8359L50.0938 48.0938C49.75 48.0938 49.5781 47.9453 49.5781 47.6484L53.6562 12.1875C53.7188 11.8594 53.9219 11.6797 54.2656 11.6484L67.1094 11.1094C67.5 11.1562 67.6953 11.3672 67.6953 11.7422L67.1094 16.5938C67.0625 17 66.8594 17.2109 66.5 17.2266L58.9531 17.4844L57.9219 26.4844L65.3281 26.2266C65.7344 26.2422 65.9375 26.4453 65.9375 26.8359L65.3281 31.6172C65.2656 31.9766 65.0625 32.1719 64.7188 32.2031ZM80.4922 8.97656L76.1797 47.2734C76.1484 47.4922 76.0938 47.6484 76.0156 47.7422C75.9375 47.8359 75.7891 47.8906 75.5703 47.9062L70.8594 48.0938C70.5156 48.0625 70.3438 47.9141 70.3438 47.6484L74.6797 9.14062C74.7109 8.92188 74.7656 8.76562 74.8438 8.67188C74.9219 8.57812 75.0703 8.52344 75.2891 8.50781L79.8828 8.34375C80.2891 8.39062 80.4922 8.60156 80.4922 8.97656ZM103.93 20.2734L100.883 47.2969C100.836 47.7031 100.633 47.9141 100.273 47.9297L95.5391 48.0938C95.2109 48.0625 95.0469 47.9141 95.0469 47.6484L95.4922 44.4609C94.7734 45.6797 93.9844 46.6172 93.125 47.2734C92.2812 47.9297 91.3281 48.2578 90.2656 48.2578C89.2031 48.2578 88.2969 48.0781 87.5469 47.7188C86.7969 47.3438 86.1797 46.8594 85.6953 46.2656C85.2266 45.6562 84.8438 44.9297 84.5469 44.0859C84 42.5859 83.7266 40.5391 83.7266 37.9453C83.7266 35.3359 83.8984 33.125 84.2422 31.3125C84.6016 29.5 84.9141 28.125 85.1797 27.1875C85.4453 26.2344 85.7969 25.2578 86.2344 24.2578C86.6875 23.2578 87.1953 22.4219 87.7578 21.75C89.0391 20.2188 90.6562 19.4531 92.6094 19.4531C94.0625 19.4531 95.1719 19.8047 95.9375 20.5078C96.7031 21.1953 97.3438 22.2188 97.8594 23.5781L98.1406 20.3906C98.1719 20.0469 98.3672 19.8594 98.7266 19.8281L103.32 19.6641C103.727 19.6953 103.93 19.8984 103.93 20.2734ZM89.6328 37.2656C89.6328 41 90.6328 42.8672 92.6328 42.8672C93.5078 42.8672 94.2188 42.4688 94.7656 41.6719C95.3125 40.8594 95.7812 39.2422 96.1719 36.8203C96.5781 34.3984 96.7812 32.6328 96.7812 31.5234C96.7812 30.4141 96.7734 29.7109 96.7578 29.4141C96.7422 29.1172 96.7109 28.7266 96.6641 28.2422C96.6172 27.7422 96.5312 27.3281 96.4062 27C96.2812 26.6562 96.1172 26.3125 95.9141 25.9688C95.5078 25.2969 94.8516 24.9609 93.9453 24.9609C93.0391 24.9609 92.3203 25.3672 91.7891 26.1797C91.2578 26.9766 90.8438 28.0469 90.5469 29.3906C89.9375 32.2656 89.6328 34.8906 89.6328 37.2656ZM116.727 20.2734L116.469 22.4531C118.766 20.4531 120.969 19.4531 123.078 19.4531C125.203 19.4531 126.688 20.4766 127.531 22.5234C129.875 20.4766 132.148 19.4531 134.352 19.4531C137.07 19.4531 138.82 20.8906 139.602 23.7656C139.82 24.5625 139.93 25.3047 139.93 25.9922C139.93 26.6797 139.906 27.2344 139.859 27.6562L137.609 47.2969C137.547 47.6875 137.352 47.8984 137.023 47.9297L132.289 48.0938C131.945 48.0625 131.773 47.9141 131.773 47.6484L133.906 29.0859C133.969 28.5547 134 28.1875 134 27.9844C134 26.7031 133.695 25.8359 133.086 25.3828C132.477 24.9141 131.719 24.6797 130.812 24.6797C129.922 24.6797 129.031 24.8438 128.141 25.1719C128.188 25.5469 128.211 25.9531 128.211 26.3906C128.211 26.8125 128.188 27.2344 128.141 27.6562L125.891 47.2969C125.828 47.6875 125.633 47.8984 125.305 47.9297L120.57 48.0938C120.227 48.0625 120.055 47.9141 120.055 47.6484L122.188 29.0859C122.234 28.6797 122.258 28.3125 122.258 27.9844C122.258 26.7031 121.953 25.8359 121.344 25.3828C120.75 24.9141 119.984 24.6797 119.047 24.6797C118.125 24.6797 117.164 24.875 116.164 25.2656L113.68 47.2734C113.617 47.6641 113.422 47.875 113.094 47.9062L108.359 48.0938C108.016 48.0625 107.844 47.9141 107.844 47.6484L110.938 20.3906C111 20.0469 111.195 19.8594 111.523 19.8281L116.094 19.6641C116.516 19.6797 116.727 19.8828 116.727 20.2734ZM146.117 43.6172C145.758 42.6797 145.508 41.7578 145.367 40.8516C145.242 39.9297 145.18 38.6719 145.18 37.0781C145.18 35.4844 145.352 33.5156 145.695 31.1719C146.836 23.3594 150.383 19.4531 156.336 19.4531C158.633 19.4531 160.391 20.2422 161.609 21.8203C162.828 23.3984 163.438 25.4453 163.438 27.9609C163.438 30.4766 163.281 32.9219 162.969 35.2969C162.922 35.7188 162.68 35.9375 162.242 35.9531L150.664 36.3516C150.648 36.5859 150.641 36.8984 150.641 37.2891C150.641 39.0547 150.945 40.4531 151.555 41.4844C152.18 42.5156 153.117 43.0312 154.367 43.0312C155.617 43.0312 156.773 42.8516 157.836 42.4922C158.914 42.1172 159.547 41.9297 159.734 41.9297C159.922 41.9297 160.086 41.9922 160.227 42.1172C160.367 42.2422 160.438 42.4141 160.438 42.6328L159.969 46.7578C159.953 46.9922 159.906 47.1484 159.828 47.2266C159.766 47.2891 159.633 47.3594 159.43 47.4375C157.539 47.9844 155.719 48.2578 153.969 48.2578C152.219 48.2578 150.859 48.0469 149.891 47.625C148.922 47.2031 148.141 46.6641 147.547 46.0078C146.969 45.3359 146.492 44.5391 146.117 43.6172ZM151.227 30.4688L151.016 31.9688L157.133 31.6641C157.398 31.6484 157.57 31.6016 157.648 31.5234C157.883 31.2891 158 30.6484 158 29.6016C158 28.5391 157.961 27.7969 157.883 27.375C157.82 26.9375 157.703 26.4922 157.531 26.0391C157.172 25.0391 156.555 24.5391 155.68 24.5391C154.82 24.5391 154.141 24.6875 153.641 24.9844C152.531 25.6719 151.727 27.5 151.227 30.4688Z" fill="#F3705A"/>
<path d="M42.7253 41.8102C39.5253 54.6102 28.7253 57.8102 23.7253 57.8102C20.8919 57.4769 15.1253 56.7102 14.7253 56.3102C14.2253 55.8102 11.2253 54.8102 6.22528 49.8102C2.22528 45.8102 0.558619 39.8102 0.225288 37.3102C-1.27472 31.8102 5.22529 15.8102 4.7253 19.8102C4.20733 23.9541 8.2253 30.1435 10.7253 32.8102C9.5253 31.2102 8.89196 27.1435 8.72529 25.3102C5.7253 10.8102 28.8162 -2.1898 27.2253 0.310195C24.4253 4.71018 26.0586 11.1435 27.2253 13.8102C31.392 19.8102 37.2253 31.4977 35.7253 32.8102C38.9253 30.0102 39.392 22.9769 39.2253 19.8102C41.7253 21.8102 45.9253 29.0102 42.7253 41.8102Z" fill="#F3705A"/>
<path d="M32.4207 49.9737C30.8164 56.3947 25.4017 58 22.8949 58C21.4744 57.8328 18.5832 57.4482 18.3827 57.2475C18.132 56.9967 16.6279 56.4951 14.1211 53.9869C12.1157 51.9803 11.2801 48.9705 11.113 47.7163C10.3609 44.9573 13.6197 36.9311 13.3691 38.9376C13.1094 41.0164 15.1238 44.1212 16.3772 45.459C15.7756 44.6563 15.4581 42.6163 15.3745 41.6966C13.8704 34.4228 25.4473 27.9015 24.6497 29.1556C23.2458 31.3628 24.0647 34.5901 24.6497 35.9278C26.7387 38.9376 29.6633 44.8006 28.9112 45.459C30.5156 44.0544 30.7495 40.5261 30.666 38.9376C31.9194 39.9409 34.0251 43.5527 32.4207 49.9737Z" fill="#FFD15C"/>
</svg>
