<svg width="201" height="59" viewBox="0 0 201 59" fill="none" xmlns="http://www.w3.org/2000/svg">
<path d="M57.7656 33.8359L51.5156 34.0508L50.1094 46.375C50.0573 46.6745 49.888 46.8372 49.6016 46.8633L45.5781 47.0781C45.2917 47.0781 45.1484 46.9544 45.1484 46.707L48.5469 17.1562C48.599 16.8828 48.7682 16.7331 49.0547 16.707L59.7578 16.2578C60.0833 16.2969 60.2461 16.4727 60.2461 16.7852L59.7578 20.8281C59.7188 21.1667 59.5495 21.3424 59.25 21.3555L52.9609 21.5703L52.1016 29.0703L58.2734 28.8555C58.612 28.8685 58.7812 29.0378 58.7812 29.3633L58.2734 33.3477C58.2214 33.6471 58.0521 33.8099 57.7656 33.8359ZM70.9102 14.4805L67.3164 46.3945C67.2904 46.5768 67.2448 46.707 67.1797 46.7852C67.1146 46.8633 66.9909 46.9089 66.8086 46.9219L62.8828 47.0781C62.5964 47.0521 62.4531 46.9284 62.4531 46.707L66.0664 14.6172C66.0924 14.4349 66.138 14.3047 66.2031 14.2266C66.2682 14.1484 66.3919 14.1029 66.5742 14.0898L70.4023 13.9531C70.7409 13.9922 70.9102 14.168 70.9102 14.4805ZM90.4414 23.8945L87.9023 46.4141C87.8633 46.7526 87.694 46.9284 87.3945 46.9414L83.4492 47.0781C83.1758 47.0521 83.0391 46.9284 83.0391 46.707L83.4102 44.0508C82.8112 45.0664 82.1536 45.8477 81.4375 46.3945C80.7344 46.9414 79.9401 47.2148 79.0547 47.2148C78.1693 47.2148 77.4141 47.0651 76.7891 46.7656C76.1641 46.4531 75.6497 46.0495 75.2461 45.5547C74.8555 45.0469 74.5365 44.4414 74.2891 43.7383C73.8333 42.4883 73.6055 40.7826 73.6055 38.6211C73.6055 36.4466 73.7487 34.6042 74.0352 33.0938C74.3346 31.5833 74.5951 30.4375 74.8164 29.6562C75.0378 28.862 75.3307 28.0482 75.6953 27.2148C76.0729 26.3815 76.4961 25.6849 76.9648 25.125C78.0326 23.849 79.3802 23.2109 81.0078 23.2109C82.2188 23.2109 83.1432 23.5039 83.7812 24.0898C84.4193 24.6628 84.9531 25.5156 85.3828 26.6484L85.6172 23.9922C85.6432 23.7057 85.806 23.5495 86.1055 23.5234L89.9336 23.3867C90.2721 23.4128 90.4414 23.582 90.4414 23.8945ZM78.5273 38.0547C78.5273 41.1667 79.3607 42.7227 81.0273 42.7227C81.7565 42.7227 82.349 42.3906 82.8047 41.7266C83.2604 41.0495 83.651 39.7018 83.9766 37.6836C84.3151 35.6654 84.4844 34.194 84.4844 33.2695C84.4844 32.3451 84.4779 31.7591 84.4648 31.5117C84.4518 31.2643 84.4258 30.9388 84.3867 30.5352C84.3477 30.1185 84.276 29.7734 84.1719 29.5C84.0677 29.2135 83.931 28.9271 83.7617 28.6406C83.4232 28.0807 82.8763 27.8008 82.1211 27.8008C81.3659 27.8008 80.7669 28.1393 80.3242 28.8164C79.8815 29.4805 79.5365 30.3724 79.2891 31.4922C78.7812 33.888 78.5273 36.0755 78.5273 38.0547ZM101.105 23.8945L100.891 25.7109C102.805 24.0443 104.641 23.2109 106.398 23.2109C108.169 23.2109 109.406 24.0638 110.109 25.7695C112.062 24.0638 113.957 23.2109 115.793 23.2109C118.059 23.2109 119.517 24.4089 120.168 26.8047C120.35 27.4688 120.441 28.0872 120.441 28.6602C120.441 29.2331 120.422 29.6953 120.383 30.0469L118.508 46.4141C118.456 46.7396 118.293 46.9154 118.02 46.9414L114.074 47.0781C113.788 47.0521 113.645 46.9284 113.645 46.707L115.422 31.2383C115.474 30.7956 115.5 30.4896 115.5 30.3203C115.5 29.2526 115.246 28.5299 114.738 28.1523C114.23 27.7617 113.599 27.5664 112.844 27.5664C112.102 27.5664 111.359 27.7031 110.617 27.9766C110.656 28.2891 110.676 28.6276 110.676 28.9922C110.676 29.3438 110.656 29.6953 110.617 30.0469L108.742 46.4141C108.69 46.7396 108.527 46.9154 108.254 46.9414L104.309 47.0781C104.022 47.0521 103.879 46.9284 103.879 46.707L105.656 31.2383C105.695 30.8997 105.715 30.5938 105.715 30.3203C105.715 29.2526 105.461 28.5299 104.953 28.1523C104.458 27.7617 103.82 27.5664 103.039 27.5664C102.271 27.5664 101.47 27.7292 100.637 28.0547L98.5664 46.3945C98.5143 46.7201 98.3516 46.8958 98.0781 46.9219L94.1328 47.0781C93.8464 47.0521 93.7031 46.9284 93.7031 46.707L96.2812 23.9922C96.3333 23.7057 96.4961 23.5495 96.7695 23.5234L100.578 23.3867C100.93 23.3997 101.105 23.569 101.105 23.8945ZM125.598 43.3477C125.298 42.5664 125.09 41.7982 124.973 41.043C124.868 40.2747 124.816 39.2266 124.816 37.8984C124.816 36.5703 124.96 34.9297 125.246 32.9766C126.197 26.4661 129.152 23.2109 134.113 23.2109C136.027 23.2109 137.492 23.8685 138.508 25.1836C139.523 26.4987 140.031 28.2044 140.031 30.3008C140.031 32.3971 139.901 34.4349 139.641 36.4141C139.602 36.7656 139.4 36.9479 139.035 36.9609L129.387 37.293C129.374 37.4883 129.367 37.7487 129.367 38.0742C129.367 39.5456 129.621 40.7109 130.129 41.5703C130.65 42.4297 131.431 42.8594 132.473 42.8594C133.514 42.8594 134.478 42.7096 135.363 42.4102C136.262 42.0977 136.789 41.9414 136.945 41.9414C137.102 41.9414 137.238 41.9935 137.355 42.0977C137.473 42.2018 137.531 42.3451 137.531 42.5273L137.141 45.9648C137.128 46.1602 137.089 46.2904 137.023 46.3555C136.971 46.4076 136.861 46.4661 136.691 46.5312C135.116 46.987 133.599 47.2148 132.141 47.2148C130.682 47.2148 129.549 47.0391 128.742 46.6875C127.935 46.3359 127.284 45.8867 126.789 45.3398C126.307 44.7799 125.91 44.1159 125.598 43.3477ZM129.855 32.3906L129.68 33.6406L134.777 33.3867C134.999 33.3737 135.142 33.3346 135.207 33.2695C135.402 33.0742 135.5 32.5404 135.5 31.668C135.5 30.7826 135.467 30.1641 135.402 29.8125C135.35 29.4479 135.253 29.0768 135.109 28.6992C134.81 27.8659 134.296 27.4492 133.566 27.4492C132.85 27.4492 132.284 27.5729 131.867 27.8203C130.943 28.3932 130.272 29.9167 129.855 32.3906ZM147.238 17.1562C147.264 17 147.31 16.8893 147.375 16.8242C147.44 16.7591 148.098 16.668 149.348 16.5508C150.598 16.4336 152.31 16.375 154.484 16.375C156.672 16.375 158.352 17.0065 159.523 18.2695C160.695 19.5195 161.281 21.2383 161.281 23.4258C161.281 27.5534 160.819 32.306 159.895 37.6836C159.4 40.5352 158.599 42.6576 157.492 44.0508C156.477 45.3268 154.888 46.1667 152.727 46.5703C151.75 46.7396 150.559 46.8503 149.152 46.9023L144.289 47.0781C144.003 47.0651 143.859 46.9414 143.859 46.707L147.238 17.1562ZM151.711 20.9258L149.328 42.1953C151.268 42.026 152.609 41.6484 153.352 41.0625C154.107 40.4766 154.634 39.3633 154.934 37.7227C155.233 36.082 155.526 33.8424 155.812 31.0039C156.112 28.1654 156.262 25.8411 156.262 24.0312C156.262 22.9635 156.001 22.1693 155.48 21.6484C154.96 21.1276 154.25 20.8672 153.352 20.8672C152.466 20.8672 151.919 20.8867 151.711 20.9258ZM165.715 43.3477C165.415 42.5664 165.207 41.7982 165.09 41.043C164.986 40.2747 164.934 39.2266 164.934 37.8984C164.934 36.5703 165.077 34.9297 165.363 32.9766C166.314 26.4661 169.27 23.2109 174.23 23.2109C176.145 23.2109 177.609 23.8685 178.625 25.1836C179.641 26.4987 180.148 28.2044 180.148 30.3008C180.148 32.3971 180.018 34.4349 179.758 36.4141C179.719 36.7656 179.517 36.9479 179.152 36.9609L169.504 37.293C169.491 37.4883 169.484 37.7487 169.484 38.0742C169.484 39.5456 169.738 40.7109 170.246 41.5703C170.767 42.4297 171.548 42.8594 172.59 42.8594C173.632 42.8594 174.595 42.7096 175.48 42.4102C176.379 42.0977 176.906 41.9414 177.062 41.9414C177.219 41.9414 177.355 41.9935 177.473 42.0977C177.59 42.2018 177.648 42.3451 177.648 42.5273L177.258 45.9648C177.245 46.1602 177.206 46.2904 177.141 46.3555C177.089 46.4076 176.978 46.4661 176.809 46.5312C175.233 46.987 173.716 47.2148 172.258 47.2148C170.799 47.2148 169.667 47.0391 168.859 46.6875C168.052 46.3359 167.401 45.8867 166.906 45.3398C166.424 44.7799 166.027 44.1159 165.715 43.3477ZM169.973 32.3906L169.797 33.6406L174.895 33.3867C175.116 33.3737 175.259 33.3346 175.324 33.2695C175.52 33.0742 175.617 32.5404 175.617 31.668C175.617 30.7826 175.585 30.1641 175.52 29.8125C175.467 29.4479 175.37 29.0768 175.227 28.6992C174.927 27.8659 174.413 27.4492 173.684 27.4492C172.967 27.4492 172.401 27.5729 171.984 27.8203C171.06 28.3932 170.389 29.9167 169.973 32.3906ZM190.93 40.6133L195.402 23.9922C195.48 23.6927 195.656 23.5365 195.93 23.5234L200.031 23.3867C200.357 23.4128 200.52 23.582 200.52 23.8945L192.57 46.4141C192.453 46.7396 192.284 46.9154 192.062 46.9414L188.059 47.0781C187.811 47.0651 187.668 46.9414 187.629 46.707L184.582 23.9922C184.621 23.6927 184.784 23.5365 185.07 23.5234L188.918 23.3867C189.217 23.3997 189.38 23.569 189.406 23.8945L190.93 40.6133Z" fill="#F45C43"/>
<path d="M39.9205 39.0654C36.9305 51.0251 26.8395 54.0151 22.1678 54.0151C19.5204 53.7036 14.1323 52.9873 13.7586 52.6135C13.2914 52.1464 10.4884 51.212 5.8166 46.5403C2.0792 42.8028 0.521947 37.1967 0.210498 34.8609C-1.19104 29.7219 4.88226 14.7723 4.4151 18.5097C3.93113 22.3815 7.68533 28.1647 10.0212 30.6563C8.89999 29.1613 8.30822 25.3616 8.15249 23.6486C5.34945 10.1005 26.9245 -2.04605 25.438 0.289832C22.8218 4.40097 24.3479 10.412 25.438 12.9036C29.3311 18.5097 34.7815 29.4299 33.38 30.6563C36.3699 28.0401 36.806 21.4685 36.6502 18.5097C38.9861 20.3784 42.9104 27.1057 39.9205 39.0654Z" fill="#F45C43"/>
<path d="M30.2924 46.693C28.7934 52.6925 23.7341 54.1924 21.3919 54.1924C20.0647 54.0362 17.3633 53.6768 17.1759 53.4893C16.9417 53.255 15.5363 52.7863 13.1941 50.4427C11.3203 48.5679 10.5396 45.7556 10.3834 44.5838C9.68076 42.0059 12.7257 34.5066 12.4914 36.3814C12.2488 38.3237 14.131 41.2248 15.3021 42.4747C14.74 41.7247 14.4433 39.8186 14.3652 38.9593C12.9599 32.163 23.7767 26.0698 23.0315 27.2416C21.7198 29.3039 22.485 32.3193 23.0315 33.5692C24.9833 36.3814 27.716 41.8595 27.0133 42.4747C28.5123 41.1623 28.7309 37.8657 28.6528 36.3814C29.824 37.3188 31.7914 40.6936 30.2924 46.693Z" fill="#FFD15C"/>
</svg>
